<svg width="20" height="20" viewBox="0 0 20 20" fill="none" xmlns="http://www.w3.org/2000/svg">
<path d="M19.75 7.75V12.25C19.75 12.6478 19.592 13.0294 19.3107 13.3107C19.0294 13.592 18.6478 13.75 18.25 13.75H13.75V18.25C13.75 18.6478 13.592 19.0294 13.3107 19.3107C13.0294 19.592 12.6478 19.75 12.25 19.75H7.75C7.35218 19.75 6.97064 19.592 6.68934 19.3107C6.40804 19.0294 6.25 18.6478 6.25 18.25V13.75H1.75C1.35218 13.75 0.970644 13.592 0.68934 13.3107C0.408035 13.0294 0.25 12.6478 0.25 12.25V7.75C0.25 7.35218 0.408035 6.97064 0.68934 6.68934C0.970644 6.40804 1.35218 6.25 1.75 6.25H6.25V1.75C6.25 1.35218 6.40804 0.970644 6.68934 0.68934C6.97064 0.408035 7.35218 0.25 7.75 0.25H12.25C12.6478 0.25 13.0294 0.408035 13.3107 0.68934C13.592 0.970644 13.75 1.35218 13.75 1.75V6.25H18.25C18.6478 6.25 19.0294 6.40804 19.3107 6.68934C19.592 6.97064 19.75 7.35218 19.75 7.75Z" fill="#1464C0"/>
</svg>
