<svg width="48" height="64" viewBox="0 0 48 64" fill="none" xmlns="http://www.w3.org/2000/svg">
<path d="M0 0H40C44.4183 0 48 3.58172 48 8V56C48 60.4183 44.4183 64 40 64H0V0Z" fill="#DDEBFB"/>
<path d="M26.8203 31.5547C26.9377 31.6732 27.0035 31.8332 27.0035 32C27.0035 32.1668 26.9377 32.3268 26.8203 32.4453L21.1953 38.0703C21.0753 38.185 20.916 38.2493 20.75 38.25C20.6671 38.2496 20.5849 38.2337 20.5078 38.2031C20.3941 38.1553 20.297 38.0749 20.2289 37.972C20.1608 37.8691 20.1246 37.7484 20.125 37.625V32.625H14.5C14.3342 32.625 14.1753 32.5592 14.0581 32.4419C13.9408 32.3247 13.875 32.1658 13.875 32C13.875 31.8342 13.9408 31.6753 14.0581 31.5581C14.1753 31.4408 14.3342 31.375 14.5 31.375H20.125V26.375C20.1246 26.2516 20.1608 26.1309 20.2289 26.028C20.297 25.9251 20.3941 25.8447 20.5078 25.7969C20.6233 25.7518 20.7491 25.7404 20.8708 25.7639C20.9924 25.7874 21.1049 25.8449 21.1953 25.9297L26.8203 31.5547ZM28.875 24.5C28.7092 24.5 28.5503 24.5658 28.4331 24.6831C28.3158 24.8003 28.25 24.9592 28.25 25.125V38.875C28.25 39.0408 28.3158 39.1997 28.4331 39.3169C28.5503 39.4342 28.7092 39.5 28.875 39.5C29.0408 39.5 29.1997 39.4342 29.3169 39.3169C29.4342 39.1997 29.5 39.0408 29.5 38.875V25.125C29.5 24.9592 29.4342 24.8003 29.3169 24.6831C29.1997 24.5658 29.0408 24.5 28.875 24.5Z" fill="#1464C0"/>
</svg>
