<svg width="18" height="19" viewBox="0 0 18 19" fill="none" xmlns="http://www.w3.org/2000/svg">
<path d="M17.5127 7.72208L10.0127 0.906457C9.73618 0.653481 9.37498 0.513184 9.0002 0.513184C8.62542 0.513184 8.26422 0.653481 7.9877 0.906457L0.4877 7.72208C0.334142 7.86257 0.211499 8.03347 0.127571 8.22392C0.0436425 8.41437 0.000266168 8.62021 0.000200032 8.82833V17.4627C-0.00589792 17.8409 0.127612 18.208 0.3752 18.494C0.51572 18.6537 0.688823 18.7816 0.88287 18.8689C1.07692 18.9562 1.28741 19.001 1.5002 19.0002H6.0002C6.19911 19.0002 6.38988 18.9212 6.53053 18.7805C6.67118 18.6399 6.7502 18.4491 6.7502 18.2502V13.7502C6.7502 13.5513 6.82922 13.3605 6.96987 13.2199C7.11052 13.0792 7.30129 13.0002 7.5002 13.0002H10.5002C10.6991 13.0002 10.8899 13.0792 11.0305 13.2199C11.1712 13.3605 11.2502 13.5513 11.2502 13.7502V18.2502C11.2502 18.4491 11.3292 18.6399 11.4699 18.7805C11.6105 18.9212 11.8013 19.0002 12.0002 19.0002H16.5002C16.749 19.0024 16.9942 18.9411 17.2127 18.8221C17.4504 18.6926 17.649 18.5016 17.7875 18.269C17.9261 18.0365 17.9995 17.7709 18.0002 17.5002V8.82833C18.0001 8.62021 17.9568 8.41437 17.8728 8.22392C17.7889 8.03347 17.6663 7.86257 17.5127 7.72208Z" fill="#1464C0"/>
</svg>
