<svg width="20" height="19" viewBox="0 0 20 19" fill="none" xmlns="http://www.w3.org/2000/svg">
<path d="M17.5 0.75H2.5C1.25736 0.75 0.25 1.75736 0.25 3V13.5C0.25 14.7426 1.25736 15.75 2.5 15.75H17.5C18.7426 15.75 19.75 14.7426 19.75 13.5V3C19.75 1.75736 18.7426 0.75 17.5 0.75Z" fill="#1464C0"/>
<path d="M13 17.25H7C6.80109 17.25 6.61032 17.329 6.46967 17.4697C6.32902 17.6103 6.25 17.8011 6.25 18C6.25 18.1989 6.32902 18.3897 6.46967 18.5303C6.61032 18.671 6.80109 18.75 7 18.75H13C13.1989 18.75 13.3897 18.671 13.5303 18.5303C13.671 18.3897 13.75 18.1989 13.75 18C13.75 17.8011 13.671 17.6103 13.5303 17.4697C13.3897 17.329 13.1989 17.25 13 17.25Z" fill="#1464C0"/>
</svg>
