<svg width="232" height="51" viewBox="0 0 232 51" fill="none" xmlns="http://www.w3.org/2000/svg">
<path d="M67.198 21.6548C66.5247 21.6548 65.9478 21.5269 65.4708 21.2714C64.9937 21.0159 64.6283 20.6451 64.3778 20.1583C64.1269 19.6719 64.0034 19.0817 64.0034 18.3944V11.6855C64.0034 10.995 64.1269 10.408 64.3778 9.92158C64.6283 9.43198 64.9937 9.06399 65.4708 8.8113C65.9478 8.55897 66.5247 8.4314 67.198 8.4314C67.8682 8.4314 68.4451 8.55897 68.9221 8.8113C69.3992 9.06399 69.7645 9.43198 70.0151 9.92158C70.2656 10.408 70.3895 10.995 70.3895 11.6855V18.3944C70.3895 19.0817 70.2656 19.6719 70.0151 20.1583C69.7645 20.6451 69.3992 21.0159 68.9221 21.2714C68.4451 21.5269 67.8682 21.6548 67.198 21.6548ZM67.198 20.2011C67.5634 20.2011 67.8744 20.1341 68.1309 19.9971C68.3877 19.8604 68.5808 19.6628 68.7137 19.4013C68.8466 19.1395 68.9131 18.8234 68.9131 18.4554V11.6308C68.9131 11.2628 68.8466 10.9463 68.7137 10.6849C68.5808 10.4262 68.3877 10.2258 68.1309 10.0887C67.8744 9.95207 67.5634 9.88513 67.198 9.88513C66.8354 9.88513 66.5275 9.95207 66.2711 10.0887C66.0143 10.2258 65.8211 10.4262 65.6851 10.6849C65.5494 10.9463 65.4798 11.2628 65.4798 11.6308V18.4554C65.4798 18.8234 65.5494 19.1395 65.6851 19.4013C65.8211 19.6628 66.0143 19.8604 66.2711 19.9971C66.5275 20.1341 66.8354 20.2011 67.198 20.2011Z" fill="#1464C0"/>
<path d="M71.7329 8.56494H73.3453V11.0073L71.7329 12.8595V8.56494Z" fill="#1464C0"/>
<path d="M79.7682 9.80278L76.0781 20.1219H79.8555V21.5209H74.5112V20.2831L78.2462 9.964H74.6713V8.56494H79.7682V9.80278Z" fill="#1464C0"/>
<path d="M82.3346 20.1219H84.6416C85.025 20.1219 85.3211 20.0248 85.5324 19.8331C85.7408 19.6382 85.8466 19.3677 85.8466 19.0179V17.0227C85.8466 16.6943 85.7919 16.4147 85.6802 16.1806C85.5717 15.9464 85.4207 15.767 85.2275 15.645C85.0313 15.5234 84.8076 15.4628 84.5539 15.4628H82.3346V14.0637H84.5539C84.9133 14.0637 85.191 13.939 85.3845 13.6926C85.5807 13.4462 85.6775 13.0965 85.6775 12.6465V11.062C85.6775 10.7091 85.5807 10.4385 85.3845 10.25C85.191 10.0583 84.9193 9.964 84.572 9.964H82.3346V8.56494H84.5358C85.0915 8.56494 85.5626 8.65922 85.9551 8.84777C86.3476 9.03351 86.6465 9.30723 86.849 9.6661C87.0543 10.025 87.1538 10.4599 87.1538 10.9709V12.5217C87.1538 12.9324 87.0995 13.2941 86.9879 13.6074C86.873 13.9239 86.713 14.1822 86.5045 14.383C86.2965 14.587 86.0397 14.7237 85.7376 14.7938C86.0759 14.8544 86.3626 14.9883 86.5981 15.195C86.8337 15.4018 87.0119 15.6727 87.1357 16.0011C87.2596 16.3295 87.3229 16.7157 87.3229 17.1538V19.0516C87.3229 19.5745 87.2234 20.0217 87.0272 20.3896C86.8278 20.7576 86.5407 21.0373 86.1604 21.2322C85.7801 21.4235 85.318 21.5209 84.7745 21.5209H82.3346V20.1219ZM81.272 8.56494H82.7483V21.5209H81.272V8.56494Z" fill="#1464C0"/>
<path d="M88.8721 8.56494H90.3485V21.5209H88.8721V8.56494ZM89.7475 20.1219H94.3917V21.5209H89.7475V20.1219ZM89.7475 14.383H93.9509V15.7821H89.7475V14.383ZM89.7475 8.56494H94.3917V9.964H89.7475V8.56494Z" fill="#1464C0"/>
<path d="M96.9127 15.9433L100.621 8.56494H102.248L96.8887 18.6531L96.9127 15.9433ZM95.7202 8.56494H97.1966V21.5209H95.7202V8.56494ZM98.498 14.5989L99.4701 13.2699L102.656 21.5209H100.947L98.498 14.5989Z" fill="#1464C0"/>
<path d="M105.195 21.5209H103.715V8.56494H105.195V21.5209Z" fill="#1464C0"/>
<path d="M110.087 21.6548C109.401 21.6548 108.828 21.5391 108.36 21.311C107.895 21.0828 107.544 20.7422 107.309 20.2862C107.073 19.8331 106.956 19.2734 106.956 18.6075V17.9658H108.423V18.5802C108.423 19.1276 108.562 19.5411 108.843 19.8177C109.124 20.0977 109.537 20.2375 110.087 20.2375C110.624 20.2375 111.026 20.0977 111.298 19.8177C111.569 19.5411 111.705 19.1276 111.705 18.5802V17.628C111.705 17.2663 111.621 16.9561 111.452 16.6975C111.286 16.4388 111.071 16.2229 110.814 16.0558C110.561 15.8854 110.217 15.7 109.785 15.4992C109.773 15.4933 109.761 15.487 109.745 15.481C109.731 15.4747 109.718 15.4687 109.706 15.4628L109.583 15.399C109.021 15.1312 108.568 14.8789 108.221 14.6416C107.87 14.4044 107.575 14.0788 107.33 13.6652C107.085 13.2549 106.965 12.7376 106.965 12.1204V11.4268C106.965 10.7732 107.082 10.2226 107.318 9.77858C107.553 9.33139 107.904 8.99705 108.365 8.77205C108.828 8.5439 109.398 8.4314 110.078 8.4314C110.739 8.4314 111.295 8.5467 111.744 8.77485C112.198 9.00301 112.536 9.34366 112.762 9.79681C112.988 10.2468 113.103 10.8033 113.103 11.4605V12.1386H111.633V11.4969C111.633 10.9495 111.503 10.5387 111.24 10.2591C110.978 9.9794 110.591 9.83922 110.078 9.83922C109.534 9.83922 109.124 9.97309 108.849 10.2408C108.571 10.5086 108.432 10.8976 108.432 11.4086V12.1295C108.432 12.4915 108.52 12.7985 108.692 13.0509C108.867 13.3032 109.084 13.5103 109.344 13.6652C109.604 13.8233 109.957 14.0091 110.404 14.2249C110.452 14.24 110.494 14.2614 110.534 14.2828C110.57 14.301 110.615 14.3224 110.661 14.3406C110.685 14.3525 110.709 14.3616 110.736 14.3739C110.763 14.3862 110.787 14.3984 110.812 14.4103C111.313 14.6476 111.723 14.8849 112.047 15.119C112.367 15.3531 112.635 15.6727 112.85 16.0771C113.067 16.4816 113.173 16.9926 113.173 17.6097V18.6075C113.173 19.2734 113.058 19.8299 112.826 20.2831C112.59 20.7331 112.246 21.0769 111.79 21.3082C111.331 21.5391 110.763 21.6548 110.087 21.6548Z" fill="#1464C0"/>
<path d="M116.359 9.6265H117.835V21.5209H116.359V9.6265ZM113.97 8.56494H120.215V9.964H113.97V8.56494Z" fill="#1464C0"/>
<path d="M124.294 21.6548C123.621 21.6548 123.044 21.5269 122.567 21.2714C122.09 21.0159 121.725 20.6451 121.474 20.1583C121.223 19.6719 121.1 19.0817 121.1 18.3944V11.6855C121.1 10.995 121.223 10.408 121.474 9.92158C121.725 9.43198 122.09 9.06399 122.567 8.8113C123.044 8.55897 123.621 8.4314 124.294 8.4314C124.964 8.4314 125.541 8.55897 126.018 8.8113C126.495 9.06399 126.861 9.43198 127.111 9.92158C127.362 10.408 127.486 10.995 127.486 11.6855V18.3944C127.486 19.0817 127.362 19.6719 127.111 20.1583C126.861 20.6451 126.495 21.0159 126.018 21.2714C125.541 21.5269 124.964 21.6548 124.294 21.6548ZM124.294 20.2011C124.66 20.2011 124.971 20.1341 125.227 19.9971C125.484 19.8604 125.677 19.6628 125.81 19.4013C125.943 19.1395 126.009 18.8234 126.009 18.4554V11.6308C126.009 11.2628 125.943 10.9463 125.81 10.6849C125.677 10.4262 125.484 10.2258 125.227 10.0887C124.971 9.95207 124.66 9.88513 124.294 9.88513C123.932 9.88513 123.624 9.95207 123.367 10.0887C123.11 10.2258 122.917 10.4262 122.781 10.6849C122.646 10.9463 122.576 11.2628 122.576 11.6308V18.4554C122.576 18.8234 122.646 19.1395 122.781 19.4013C122.917 19.6628 123.11 19.8604 123.367 19.9971C123.624 20.1341 123.932 20.2011 124.294 20.2011Z" fill="#1464C0"/>
<path d="M129.08 8.56494H130.414L134.21 18.8476L133.972 19.0789V8.56494H135.397V21.5118H134.05L130.267 11.3813L130.514 11.1503V21.5118H129.08V8.56494Z" fill="#1464C0"/>
<path d="M141.599 14.6417H143.978C144.319 14.6417 144.612 14.578 144.857 14.45C145.101 14.3225 145.288 14.1367 145.415 13.8903C145.542 13.644 145.605 13.3461 145.605 13.0023V11.6765C145.605 11.3144 145.542 11.0043 145.415 10.7456C145.288 10.4873 145.101 10.2897 144.857 10.1558C144.612 10.0219 144.319 9.95496 143.978 9.95496H141.599V8.55591H143.854C144.531 8.55591 145.113 8.67156 145.596 8.89971C146.079 9.12787 146.448 9.46537 146.701 9.90625C146.955 10.3503 147.082 10.8795 147.082 11.497V13.0114C147.082 13.6471 146.955 14.1914 146.701 14.6477C146.448 15.1008 146.079 15.4475 145.596 15.6847C145.113 15.922 144.531 16.0408 143.854 16.0408H141.599V14.6417ZM140.811 8.55591H142.287V21.521H140.811V8.55591ZM144.038 15.6392L145.394 15.2316L147.444 21.521H145.789L144.038 15.6392Z" fill="#1464C0"/>
<path d="M148.994 8.56494H150.47V21.5209H148.994V8.56494ZM149.869 20.1219H154.513V21.5209H149.869V20.1219ZM149.869 14.383H154.072V15.7821H149.869V14.383ZM149.869 8.56494H154.513V9.964H149.869V8.56494Z" fill="#1464C0"/>
<path d="M158.885 21.6548C158.2 21.6548 157.626 21.5391 157.158 21.311C156.693 21.0828 156.343 20.7422 156.107 20.2862C155.872 19.8331 155.754 19.2734 155.754 18.6075V17.9658H157.221V18.5802C157.221 19.1276 157.36 19.5411 157.641 19.8177C157.922 20.0977 158.335 20.2375 158.885 20.2375C159.423 20.2375 159.824 20.0977 160.096 19.8177C160.368 19.5411 160.504 19.1276 160.504 18.5802V17.628C160.504 17.2663 160.419 16.9561 160.25 16.6975C160.084 16.4388 159.87 16.2229 159.613 16.0558C159.359 15.8854 159.015 15.7 158.583 15.4992C158.571 15.4933 158.559 15.487 158.544 15.481C158.529 15.4747 158.517 15.4687 158.504 15.4628L158.381 15.399C157.819 15.1312 157.366 14.8789 157.019 14.6416C156.669 14.4044 156.373 14.0788 156.128 13.6652C155.884 13.2549 155.763 12.7376 155.763 12.1204V11.4268C155.763 10.7732 155.881 10.2226 156.116 9.77858C156.352 9.33139 156.702 8.99705 157.164 8.77205C157.626 8.5439 158.197 8.4314 158.876 8.4314C159.537 8.4314 160.093 8.5467 160.543 8.77485C160.996 9.00301 161.334 9.34366 161.56 9.79681C161.787 10.2468 161.902 10.8033 161.902 11.4605V12.1386H160.431V11.4969C160.431 10.9495 160.301 10.5387 160.039 10.2591C159.776 9.9794 159.389 9.83922 158.876 9.83922C158.333 9.83922 157.922 9.97309 157.647 10.2408C157.369 10.5086 157.23 10.8976 157.23 11.4086V12.1295C157.23 12.4915 157.318 12.7985 157.49 13.0509C157.665 13.3032 157.883 13.5103 158.142 13.6652C158.402 13.8233 158.755 14.0091 159.202 14.2249C159.251 14.24 159.293 14.2614 159.332 14.2828C159.368 14.301 159.413 14.3224 159.459 14.3406C159.483 14.3525 159.507 14.3616 159.534 14.3739C159.562 14.3862 159.586 14.3984 159.61 14.4103C160.111 14.6476 160.522 14.8849 160.845 15.119C161.165 15.3531 161.434 15.6727 161.648 16.0771C161.865 16.4816 161.971 16.9926 161.971 17.6097V18.6075C161.971 19.2734 161.856 19.8299 161.624 20.2831C161.388 20.7331 161.044 21.0769 160.588 21.3082C160.129 21.5391 159.562 21.6548 158.885 21.6548Z" fill="#1464C0"/>
<path d="M164.405 15.0976H166.996C167.237 15.0976 167.449 15.0401 167.627 14.9273C167.808 14.8148 167.944 14.6536 168.034 14.4408C168.125 14.2309 168.173 13.9786 168.173 13.6807V11.4268C168.173 11.1167 168.125 10.8521 168.034 10.633C167.944 10.4143 167.811 10.2468 167.633 10.1343C167.455 10.0218 167.243 9.964 166.996 9.964H164.405V8.56494H166.941C167.521 8.56494 168.013 8.67779 168.421 8.89964C168.826 9.12148 169.137 9.44706 169.348 9.86972C169.562 10.2955 169.668 10.8097 169.668 11.4086V13.708C169.668 14.2947 169.559 14.7966 169.345 15.2133C169.13 15.63 168.819 15.9464 168.412 16.1651C168.004 16.3873 167.515 16.4967 166.941 16.4967H164.405V15.0976ZM163.475 8.56494H164.951V21.5209H163.475V8.56494Z" fill="#1464C0"/>
<path d="M174.043 21.6548C173.409 21.6548 172.872 21.5392 172.44 21.311C172.005 21.0829 171.679 20.7422 171.459 20.2863C171.235 19.8331 171.126 19.2734 171.126 18.6075V8.56494H172.603V18.6773C172.603 19.176 172.724 19.5562 172.971 19.8149C173.216 20.0732 173.572 20.2011 174.043 20.2011C174.529 20.2011 174.892 20.0732 175.136 19.8149C175.381 19.5562 175.505 19.176 175.505 18.6773V8.56494H176.981V18.6075C176.981 19.2734 176.873 19.8299 176.649 20.2831C176.429 20.7331 176.099 21.0769 175.665 21.3082C175.227 21.5392 174.686 21.6548 174.043 21.6548Z" fill="#1464C0"/>
<path d="M179.548 20.1219H181.854C182.238 20.1219 182.534 20.0248 182.745 19.8331C182.954 19.6382 183.059 19.3677 183.059 19.0179V17.0227C183.059 16.6943 183.005 16.4147 182.893 16.1806C182.785 15.9464 182.634 15.767 182.44 15.645C182.244 15.5234 182.02 15.4628 181.767 15.4628H179.548V14.0637H181.767C182.126 14.0637 182.404 13.939 182.597 13.6926C182.794 13.4462 182.89 13.0965 182.89 12.6465V11.062C182.89 10.7091 182.794 10.4385 182.597 10.25C182.404 10.0583 182.132 9.964 181.785 9.964H179.548V8.56494H181.749C182.304 8.56494 182.776 8.65922 183.168 8.84777C183.56 9.03351 183.859 9.30723 184.062 9.6661C184.267 10.025 184.367 10.4599 184.367 10.9709V12.5217C184.367 12.9324 184.312 13.2941 184.201 13.6074C184.086 13.9239 183.926 14.1822 183.717 14.383C183.509 14.587 183.253 14.7237 182.951 14.7938C183.289 14.8544 183.575 14.9883 183.811 15.195C184.047 15.4018 184.225 15.6727 184.349 16.0011C184.472 16.3295 184.536 16.7157 184.536 17.1538V19.0516C184.536 19.5745 184.436 20.0217 184.24 20.3896C184.041 20.7576 183.754 21.0373 183.373 21.2322C182.993 21.4235 182.531 21.5209 181.987 21.5209H179.548V20.1219ZM178.485 8.56494H179.961V21.5209H178.485V8.56494Z" fill="#1464C0"/>
<path d="M186.085 8.56494H187.561V21.5209H186.085V8.56494ZM186.988 20.1219H191.429V21.5209H186.988V20.1219Z" fill="#1464C0"/>
<path d="M194.322 21.5209H192.842V8.56494H194.322V21.5209Z" fill="#1464C0"/>
<path d="M197.363 15.9433L201.071 8.56494H202.698L197.339 18.6531L197.363 15.9433ZM196.17 8.56494H197.647V21.5209H196.17V8.56494ZM198.948 14.5989L199.92 13.2699L203.106 21.5209H201.397L198.948 14.5989Z" fill="#1464C0"/>
<path d="M206.255 8.56494H207.795L210.766 21.5209H209.157L207.025 10.6057L204.893 21.5209H203.284L206.255 8.56494ZM205.063 17.1384H209.157V18.5374H205.063V17.1384Z" fill="#1464C0"/>
<path d="M214.254 21.6548C213.568 21.6548 212.995 21.5391 212.527 21.311C212.062 21.0828 211.711 20.7422 211.476 20.2862C211.24 19.8331 211.123 19.2734 211.123 18.6075V17.9658H212.59V18.5802C212.59 19.1276 212.729 19.5411 213.01 19.8177C213.291 20.0977 213.704 20.2375 214.254 20.2375C214.791 20.2375 215.193 20.0977 215.465 19.8177C215.736 19.5411 215.872 19.1276 215.872 18.5802V17.628C215.872 17.2663 215.788 16.9561 215.619 16.6975C215.453 16.4388 215.238 16.2229 214.981 16.0558C214.728 15.8854 214.384 15.7 213.952 15.4992C213.94 15.4933 213.928 15.487 213.912 15.481C213.898 15.4747 213.885 15.4687 213.873 15.4628L213.75 15.399C213.188 15.1312 212.735 14.8789 212.388 14.6416C212.037 14.4044 211.742 14.0788 211.497 13.6652C211.252 13.2549 211.132 12.7376 211.132 12.1204V11.4268C211.132 10.7732 211.249 10.2226 211.485 9.77858C211.72 9.33139 212.071 8.99705 212.532 8.77205C212.995 8.5439 213.565 8.4314 214.245 8.4314C214.906 8.4314 215.462 8.5467 215.911 8.77485C216.365 9.00301 216.703 9.34366 216.929 9.79681C217.155 10.2468 217.27 10.8033 217.27 11.4605V12.1386H215.8V11.4969C215.8 10.9495 215.67 10.5387 215.407 10.2591C215.145 9.9794 214.758 9.83922 214.245 9.83922C213.701 9.83922 213.291 9.97309 213.016 10.2408C212.738 10.5086 212.599 10.8976 212.599 11.4086V12.1295C212.599 12.4915 212.687 12.7985 212.859 13.0509C213.034 13.3032 213.251 13.5103 213.511 13.6652C213.771 13.8233 214.124 14.0091 214.571 14.2249C214.619 14.24 214.661 14.2614 214.701 14.2828C214.737 14.301 214.782 14.3224 214.828 14.3406C214.852 14.3525 214.876 14.3616 214.903 14.3739C214.93 14.3862 214.954 14.3984 214.979 14.4103C215.48 14.6476 215.89 14.8849 216.214 15.119C216.534 15.3531 216.802 15.6727 217.017 16.0771C217.234 16.4816 217.34 16.9926 217.34 17.6097V18.6075C217.34 19.2734 217.225 19.8299 216.993 20.2831C216.757 20.7331 216.413 21.0769 215.957 21.3082C215.498 21.5391 214.93 21.6548 214.254 21.6548Z" fill="#1464C0"/>
<path d="M220.411 21.5209H218.931V8.56494H220.411V21.5209Z" fill="#1464C0"/>
<path d="M67.0468 43.5552C66.3613 43.5552 65.7875 43.4395 65.3195 43.2114C64.8547 42.9832 64.5043 42.6426 64.2687 42.1866C64.0331 41.7335 63.9155 41.1738 63.9155 40.5079V39.8662H65.3829V40.4806C65.3829 41.028 65.522 41.4415 65.8028 41.7181C66.0836 41.9981 66.497 42.1379 67.0468 42.1379C67.5844 42.1379 67.9859 41.9981 68.2577 41.7181C68.5294 41.4415 68.6651 41.028 68.6651 40.4806V39.5283C68.6651 39.1667 68.5806 38.8565 68.4115 38.5979C68.2455 38.3392 68.0312 38.1233 67.7744 37.9562C67.5207 37.7858 67.1766 37.6004 66.7448 37.3996C66.7326 37.3937 66.7208 37.3874 66.7054 37.3814C66.6905 37.3751 66.6783 37.3691 66.6661 37.3632L66.5426 37.2994C65.981 37.0316 65.528 36.7793 65.1807 36.542C64.8303 36.3048 64.5345 35.9792 64.2899 35.5656C64.0453 35.1552 63.9246 34.638 63.9246 34.0208V33.3272C63.9246 32.6736 64.0422 32.123 64.2777 31.679C64.5133 31.2318 64.8637 30.8974 65.3254 30.6724C65.7875 30.4443 66.3582 30.3318 67.0377 30.3318C67.6989 30.3318 68.2545 30.4471 68.7045 30.6752C69.1575 30.9034 69.4957 31.244 69.7219 31.6972C69.9484 32.1472 70.0632 32.7037 70.0632 33.3609V34.039H68.5928V33.3973C68.5928 32.8499 68.463 32.4391 68.2003 32.1595C67.9376 31.8798 67.551 31.7396 67.0377 31.7396C66.4942 31.7396 66.0836 31.8735 65.8088 32.1412C65.5311 32.409 65.3919 32.798 65.3919 33.309V34.0299C65.3919 34.3919 65.4796 34.6989 65.6518 34.9513C65.8268 35.2036 66.0443 35.4107 66.3039 35.5656C66.5635 35.7237 66.917 35.9094 67.3638 36.1253C67.4121 36.1404 67.4542 36.1618 67.4936 36.1832C67.5298 36.2014 67.575 36.2228 67.6206 36.241C67.6446 36.2529 67.6686 36.262 67.6961 36.2743C67.7232 36.2865 67.7472 36.2988 67.7716 36.3107C68.2726 36.548 68.6832 36.7853 69.0065 37.0194C69.3266 37.2535 69.5952 37.5731 69.8096 37.9775C70.027 38.382 70.1328 38.893 70.1328 39.5101V40.5079C70.1328 41.1738 70.018 41.7303 69.7856 42.1835C69.55 42.6335 69.2059 42.9773 68.7497 43.2086C68.2907 43.4395 67.7232 43.5552 67.0468 43.5552Z" fill="#1464C0"/>
<path d="M74.656 43.5552C73.9827 43.5552 73.4058 43.4273 72.9288 43.1718C72.4517 42.9163 72.0864 42.5455 71.8358 42.0587C71.585 41.5723 71.4614 40.9821 71.4614 40.2948V33.5859C71.4614 32.8954 71.585 32.3084 71.8358 31.822C72.0864 31.3324 72.4517 30.9644 72.9288 30.7117C73.4058 30.4594 73.9827 30.3318 74.656 30.3318C75.3262 30.3318 75.9031 30.4594 76.3801 30.7117C76.8572 30.9644 77.2225 31.3324 77.4731 31.822C77.7236 32.3084 77.8475 32.8954 77.8475 33.5859V40.2948C77.8475 40.9821 77.7236 41.5723 77.4731 42.0587C77.2225 42.5455 76.8572 42.9163 76.3801 43.1718C75.9031 43.4273 75.3262 43.5552 74.656 43.5552ZM74.656 42.1015C75.0214 42.1015 75.3324 42.0345 75.5889 41.8975C75.8457 41.7608 76.0388 41.5631 76.1717 41.3017C76.3046 41.0399 76.3711 40.7238 76.3711 40.3558V33.5312C76.3711 33.1632 76.3046 32.8467 76.1717 32.5853C76.0388 32.3266 75.8457 32.1262 75.5889 31.9891C75.3324 31.8525 75.0214 31.7855 74.656 31.7855C74.2934 31.7855 73.9855 31.8525 73.7291 31.9891C73.4723 32.1262 73.2792 32.3266 73.1431 32.5853C73.0074 32.8467 72.9378 33.1632 72.9378 33.5312V40.3558C72.9378 40.7238 73.0074 41.0399 73.1431 41.3017C73.2792 41.5631 73.4723 41.7608 73.7291 41.8975C73.9855 42.0345 74.2934 42.1015 74.656 42.1015Z" fill="#1464C0"/>
<path d="M85.4897 36.4446V40.2219C85.4897 40.9243 85.3689 41.5235 85.1274 42.0223C84.886 42.521 84.5356 42.9012 84.0707 43.1627C83.6086 43.4245 83.0529 43.5552 82.404 43.5552C81.7425 43.5552 81.1778 43.4304 80.707 43.184C80.2327 42.9377 79.8764 42.582 79.6318 42.1106C79.3844 41.642 79.2637 41.0764 79.2637 40.4196V33.6556C79.2637 32.9564 79.3844 32.3571 79.6259 31.8616C79.8674 31.3657 80.2206 30.9854 80.6826 30.724C81.1479 30.4625 81.7032 30.3318 82.3493 30.3318C82.9865 30.3318 83.5331 30.4594 83.9861 30.7117C84.442 30.9644 84.7892 31.3324 85.0279 31.8157C85.2663 32.2993 85.3842 32.8804 85.3842 33.5585V34.1911H83.8017V33.5585C83.8017 33.1783 83.7447 32.853 83.6326 32.5853C83.5209 32.3207 83.3581 32.1167 83.1437 31.98C82.9263 31.843 82.6636 31.7764 82.3493 31.7764C82.0143 31.7764 81.7244 31.8493 81.4829 31.9951C81.2415 32.1412 81.057 32.354 80.9304 32.6368C80.8034 32.9168 80.74 33.2575 80.74 33.6556V40.4196C80.74 40.7753 80.8065 41.0795 80.9394 41.3318C81.0723 41.5845 81.2623 41.7759 81.5101 41.9098C81.7575 42.0436 82.0567 42.1106 82.404 42.1106C82.745 42.1106 83.0348 42.0377 83.2763 41.8947C83.515 41.7485 83.6963 41.5358 83.8229 41.2621C83.95 40.9852 84.0133 40.6505 84.0133 40.2584V37.8437H82.3584V36.4446H85.4897Z" fill="#1464C0"/>
<path d="M86.8335 30.4653H88.4459V32.9077L86.8335 34.7599V30.4653Z" fill="#1464C0"/>
<path d="M89.79 30.4653H91.2664V43.4213H89.79V30.4653ZM90.6926 42.0223H95.1343V43.4213H90.6926V42.0223Z" fill="#1464C0"/>
<path d="M98.0269 43.4213H96.5474V30.4653H98.0269V43.4213Z" fill="#1464C0"/>
<path d="M102.961 41.0066L103.803 39.9542L107.535 42.7705L106.705 43.8226L102.961 41.0066ZM103.07 43.5552C102.396 43.5552 101.819 43.4273 101.342 43.1718C100.865 42.9163 100.5 42.5455 100.249 42.0587C99.9985 41.5723 99.875 40.9821 99.875 40.2948V33.5859C99.875 32.8954 99.9985 32.3084 100.249 31.822C100.5 31.3324 100.865 30.9644 101.342 30.7117C101.819 30.4594 102.396 30.3318 103.07 30.3318C103.74 30.3318 104.317 30.4594 104.794 30.7117C105.271 30.9644 105.636 31.3324 105.887 31.822C106.137 32.3084 106.261 32.8954 106.261 33.5859V40.2948C106.261 40.9821 106.137 41.5723 105.887 42.0587C105.636 42.5455 105.271 42.9163 104.794 43.1718C104.317 43.4273 103.74 43.5552 103.07 43.5552ZM103.07 42.1015C103.435 42.1015 103.746 42.0345 104.002 41.8975C104.259 41.7608 104.452 41.5631 104.585 41.3017C104.718 41.0399 104.785 40.7238 104.785 40.3558V33.5312C104.785 33.1632 104.718 32.8467 104.585 32.5853C104.452 32.3266 104.259 32.1262 104.002 31.9891C103.746 31.8525 103.435 31.7855 103.07 31.7855C102.707 31.7855 102.399 31.8525 102.143 31.9891C101.886 32.1262 101.693 32.3266 101.557 32.5853C101.421 32.8467 101.351 33.1632 101.351 33.5312V40.3558C101.351 40.7238 101.421 41.0399 101.557 41.3017C101.693 41.5631 101.886 41.7608 102.143 41.8975C102.399 42.0345 102.707 42.1015 103.07 42.1015Z" fill="#1464C0"/>
<path d="M108.155 30.4653H109.489L113.285 40.748L113.046 40.9793V30.4653H114.472V43.4122H113.125L109.341 33.2817L109.589 33.0507V43.4122H108.155V30.4653Z" fill="#1464C0"/>
<path d="M117.808 43.4213H116.328V30.4653H117.808V43.4213Z" fill="#1464C0"/>
<path d="M126.344 43.5552C125.659 43.5552 125.085 43.4395 124.617 43.2114C124.152 42.9832 123.802 42.6426 123.566 42.1866C123.33 41.7335 123.213 41.1738 123.213 40.5079V39.8662H124.68V40.4806C124.68 41.028 124.819 41.4415 125.1 41.7181C125.381 41.9981 125.794 42.1379 126.344 42.1379C126.882 42.1379 127.283 41.9981 127.555 41.7181C127.827 41.4415 127.962 41.028 127.962 40.4806V39.5283C127.962 39.1667 127.878 38.8565 127.709 38.5979C127.543 38.3392 127.329 38.1233 127.072 37.9562C126.818 37.7858 126.474 37.6004 126.042 37.3996C126.03 37.3937 126.018 37.3874 126.003 37.3814C125.988 37.3751 125.976 37.3691 125.963 37.3632L125.84 37.2994C125.278 37.0316 124.825 36.7793 124.478 36.542C124.128 36.3048 123.832 35.9792 123.587 35.5656C123.343 35.1552 123.222 34.638 123.222 34.0208V33.3272C123.222 32.6736 123.34 32.123 123.575 31.679C123.811 31.2318 124.161 30.8974 124.623 30.6724C125.085 30.4443 125.656 30.3318 126.335 30.3318C126.996 30.3318 127.552 30.4471 128.002 30.6752C128.455 30.9034 128.793 31.244 129.019 31.6972C129.246 32.1472 129.361 32.7037 129.361 33.3609V34.039H127.89V33.3973C127.89 32.8499 127.76 32.4391 127.498 32.1595C127.235 31.8798 126.848 31.7396 126.335 31.7396C125.792 31.7396 125.381 31.8735 125.106 32.1412C124.828 32.409 124.689 32.798 124.689 33.309V34.0299C124.689 34.3919 124.777 34.6989 124.949 34.9513C125.124 35.2036 125.342 35.4107 125.601 35.5656C125.861 35.7237 126.214 35.9094 126.661 36.1253C126.71 36.1404 126.752 36.1618 126.791 36.1832C126.827 36.2014 126.872 36.2228 126.918 36.241C126.942 36.2529 126.966 36.262 126.993 36.2743C127.021 36.2865 127.045 36.2988 127.069 36.3107C127.57 36.548 127.981 36.7853 128.304 37.0194C128.624 37.2535 128.893 37.5731 129.107 37.9775C129.324 38.382 129.43 38.893 129.43 39.5101V40.5079C129.43 41.1738 129.315 41.7303 129.083 42.1835C128.847 42.6335 128.503 42.9773 128.047 43.2086C127.588 43.4395 127.021 43.5552 126.344 43.5552Z" fill="#1464C0"/>
<path d="M133.464 30.4653H135.004L137.975 43.4213H136.366L134.234 32.5061L132.102 43.4213H130.493L133.464 30.4653ZM132.272 39.0388H136.366V40.4378H132.272V39.0388Z" fill="#1464C0"/>
<path d="M141.505 41.0066L142.348 39.9542L146.08 42.7705L145.249 43.8226L141.505 41.0066ZM141.614 43.5552C140.941 43.5552 140.364 43.4273 139.887 43.1718C139.41 42.9163 139.044 42.5455 138.794 42.0587C138.543 41.5723 138.419 40.9821 138.419 40.2948V33.5859C138.419 32.8954 138.543 32.3084 138.794 31.822C139.044 31.3324 139.41 30.9644 139.887 30.7117C140.364 30.4594 140.941 30.3318 141.614 30.3318C142.284 30.3318 142.861 30.4594 143.338 30.7117C143.815 30.9644 144.181 31.3324 144.431 31.822C144.682 32.3084 144.805 32.8954 144.805 33.5859V40.2948C144.805 40.9821 144.682 41.5723 144.431 42.0587C144.181 42.5455 143.815 42.9163 143.338 43.1718C142.861 43.4273 142.284 43.5552 141.614 43.5552ZM141.614 42.1015C141.979 42.1015 142.29 42.0345 142.547 41.8975C142.804 41.7608 142.997 41.5631 143.13 41.3017C143.263 41.0399 143.329 40.7238 143.329 40.3558V33.5312C143.329 33.1632 143.263 32.8467 143.13 32.5853C142.997 32.3266 142.804 32.1262 142.547 31.9891C142.29 31.8525 141.979 31.7855 141.614 31.7855C141.251 31.7855 140.944 31.8525 140.687 31.9891C140.43 32.1262 140.237 32.3266 140.101 32.5853C139.965 32.8467 139.896 33.1632 139.896 33.5312V40.3558C139.896 40.7238 139.965 41.0399 140.101 41.3017C140.237 41.5631 140.43 41.7608 140.687 41.8975C140.944 42.0345 141.251 42.1015 141.614 42.1015Z" fill="#1464C0"/>
<path d="M146.699 30.4653H148.175V43.4213H146.699V30.4653ZM147.601 42.0223H152.043V43.4213H147.601V42.0223Z" fill="#1464C0"/>
<path d="M155.899 30.4653H157.439L160.41 43.4213H158.801L156.669 32.5061L154.538 43.4213H152.928L155.899 30.4653ZM154.707 39.0388H158.801V40.4378H154.707V39.0388Z" fill="#1464C0"/>
<path d="M163.898 43.5552C163.212 43.5552 162.639 43.4395 162.171 43.2114C161.706 42.9832 161.355 42.6426 161.12 42.1866C160.884 41.7335 160.767 41.1738 160.767 40.5079V39.8662H162.234V40.4806C162.234 41.028 162.373 41.4415 162.654 41.7181C162.935 41.9981 163.348 42.1379 163.898 42.1379C164.435 42.1379 164.837 41.9981 165.109 41.7181C165.381 41.4415 165.516 41.028 165.516 40.4806V39.5283C165.516 39.1667 165.432 38.8565 165.263 38.5979C165.097 38.3392 164.882 38.1233 164.625 37.9562C164.372 37.7858 164.028 37.6004 163.596 37.3996C163.584 37.3937 163.572 37.3874 163.557 37.3814C163.542 37.3751 163.529 37.3691 163.517 37.3632L163.394 37.2994C162.832 37.0316 162.379 36.7793 162.032 36.542C161.681 36.3048 161.386 35.9792 161.141 35.5656C160.896 35.1552 160.776 34.638 160.776 34.0208V33.3272C160.776 32.6736 160.893 32.123 161.129 31.679C161.364 31.2318 161.715 30.8974 162.177 30.6724C162.639 30.4443 163.209 30.3318 163.889 30.3318C164.55 30.3318 165.106 30.4471 165.556 30.6752C166.009 30.9034 166.347 31.244 166.573 31.6972C166.799 32.1472 166.914 32.7037 166.914 33.3609V34.039H165.444V33.3973C165.444 32.8499 165.314 32.4391 165.051 32.1595C164.789 31.8798 164.402 31.7396 163.889 31.7396C163.345 31.7396 162.935 31.8735 162.66 32.1412C162.382 32.409 162.243 32.798 162.243 33.309V34.0299C162.243 34.3919 162.331 34.6989 162.503 34.9513C162.678 35.2036 162.895 35.4107 163.155 35.5656C163.415 35.7237 163.768 35.9094 164.215 36.1253C164.263 36.1404 164.305 36.1618 164.345 36.1832C164.381 36.2014 164.426 36.2228 164.472 36.241C164.496 36.2529 164.52 36.262 164.547 36.2743C164.574 36.2865 164.598 36.2988 164.623 36.3107C165.124 36.548 165.534 36.7853 165.858 37.0194C166.178 37.2535 166.446 37.5731 166.661 37.9775C166.878 38.382 166.984 38.893 166.984 39.5101V40.5079C166.984 41.1738 166.869 41.7303 166.637 42.1835C166.401 42.6335 166.057 42.9773 165.601 43.2086C165.142 43.4395 164.574 43.5552 163.898 43.5552Z" fill="#1464C0"/>
<path d="M172.938 30.4653H174.415V43.4213H172.938V30.4653ZM168.488 30.4653H169.973V43.4213H168.488V30.4653ZM169.611 36.3381H173.567V37.7371H169.611V36.3381Z" fill="#1464C0"/>
<path d="M179.032 30.4653H180.58L182.492 41.1861L184.403 30.4653H185.949L183.359 43.4213H181.625L179.032 30.4653Z" fill="#1464C0"/>
<path d="M188.48 30.4653H190.02L192.991 43.4213H191.382L189.25 32.5061L187.118 43.4213H185.509L188.48 30.4653ZM187.287 39.0388H191.382V40.4378H187.287V39.0388Z" fill="#1464C0"/>
<path d="M199.22 31.7032L195.53 42.0223H199.308V43.4213H193.963V42.1835L197.698 31.8644H194.123V30.4653H199.22V31.7032Z" fill="#1464C0"/>
<path d="M202.291 43.4213H200.812V30.4653H202.291V43.4213Z" fill="#1464C0"/>
<path d="M204.927 36.5419H207.307C207.648 36.5419 207.941 36.4781 208.185 36.3502C208.43 36.2226 208.617 36.0369 208.744 35.7905C208.871 35.5441 208.934 35.2462 208.934 34.9024V33.5766C208.934 33.2146 208.871 32.9044 208.744 32.6458C208.617 32.3875 208.43 32.1898 208.185 32.0559C207.941 31.922 207.648 31.8551 207.307 31.8551H204.927V30.4561H207.183C207.859 30.4561 208.442 30.5717 208.925 30.7999C209.408 31.028 209.776 31.3655 210.03 31.8064C210.284 32.2504 210.41 32.7796 210.41 33.3972V34.9115C210.41 35.5473 210.284 36.0915 210.03 36.5478C209.776 37.001 209.408 37.3476 208.925 37.5849C208.442 37.8221 207.859 37.9409 207.183 37.9409H204.927V36.5419ZM204.139 30.4561H205.616V43.4212H204.139V30.4561ZM207.367 37.5393L208.723 37.1317L210.773 43.4212H209.118L207.367 37.5393Z" fill="#1464C0"/>
<path d="M212.322 30.4653H213.799V43.4213H212.322V30.4653ZM213.225 42.0223H217.667V43.4213H213.225V42.0223Z" fill="#1464C0"/>
<path d="M220.559 43.4213H219.08V30.4653H220.559V43.4213Z" fill="#1464C0"/>
<path d="M228.633 36.4446V40.2219C228.633 40.9243 228.512 41.5235 228.271 42.0223C228.03 42.521 227.679 42.9012 227.214 43.1627C226.752 43.4245 226.196 43.5552 225.548 43.5552C224.886 43.5552 224.321 43.4304 223.851 43.184C223.376 42.9377 223.02 42.582 222.775 42.1106C222.528 41.642 222.407 41.0764 222.407 40.4196V33.6556C222.407 32.9564 222.528 32.3571 222.769 31.8616C223.011 31.3657 223.364 30.9854 223.826 30.724C224.291 30.4625 224.847 30.3318 225.493 30.3318C226.13 30.3318 226.677 30.4594 227.13 30.7117C227.586 30.9644 227.933 31.3324 228.171 31.8157C228.41 32.2993 228.528 32.8804 228.528 33.5585V34.1911H226.945V33.5585C226.945 33.1783 226.888 32.853 226.776 32.5853C226.664 32.3207 226.502 32.1167 226.287 31.98C226.07 31.843 225.807 31.7764 225.493 31.7764C225.158 31.7764 224.868 31.8493 224.626 31.9951C224.385 32.1412 224.201 32.354 224.074 32.6368C223.947 32.9168 223.884 33.2575 223.884 33.6556V40.4196C223.884 40.7753 223.95 41.0795 224.083 41.3318C224.216 41.5845 224.406 41.7759 224.654 41.9098C224.901 42.0436 225.2 42.1106 225.548 42.1106C225.889 42.1106 226.178 42.0377 226.42 41.8947C226.659 41.7485 226.84 41.5358 226.966 41.2621C227.093 40.9852 227.157 40.6505 227.157 40.2584V37.8437H225.502V36.4446H228.633Z" fill="#1464C0"/>
<path d="M231.795 43.4213H230.315V30.4653H231.795V43.4213Z" fill="#1464C0"/>
<path fill-rule="evenodd" clip-rule="evenodd" d="M39.3645 39.1462L40.5041 37.8772C40.891 37.3841 41.2832 36.8913 41.6433 36.3779C42.1151 35.705 42.5104 35.0051 42.8858 34.2744C44.0846 31.9389 44.754 29.3398 44.9367 26.7222C45.0373 25.2832 44.9597 23.8284 44.7279 22.4055C44.508 21.0566 44.1475 19.7206 43.6468 18.4495C43.3392 17.6686 42.9812 16.9221 42.5758 16.1886C42.4011 15.8718 42.2192 15.5595 42.034 15.249C41.5292 14.4037 40.899 13.5892 40.2539 12.8476C39.6064 12.1029 38.8854 11.3659 38.1195 10.7434C37.6488 10.3611 37.1727 9.98433 36.6769 9.63492C35.9887 9.15022 35.2764 8.73597 34.5276 8.35467C32.73 7.43925 30.8024 6.81577 28.812 6.50596C26.8965 6.20807 24.9421 6.20351 23.0252 6.48844C19.2968 7.04288 15.7393 8.69041 12.9884 11.2989C12.3732 11.8821 11.749 12.4916 11.2145 13.1511C8.56759 16.4168 7.05259 20.062 6.79092 24.2973C6.53483 28.4433 7.54529 32.2603 9.69358 35.7814C9.81919 35.9875 9.95872 36.19 10.0965 36.3877C10.2848 36.6575 10.4779 36.9242 10.6748 37.1878C10.8711 37.4506 11.0715 37.7114 11.2796 37.9651C11.4271 38.1453 11.5892 38.3412 11.7587 38.501L11.7608 38.5027L12.9678 39.7248L12.9703 39.7276C13.066 39.8342 13.1954 39.9372 13.3061 40.0287C13.4104 40.1145 13.5169 40.2 13.6171 40.2908C13.8781 40.5274 14.1589 40.7471 14.4421 40.9556C14.7671 41.195 15.1012 41.4228 15.4397 41.6419C16.009 42.0102 16.5995 42.3624 17.2 42.6768C21.9625 45.1696 27.8941 45.4213 32.8737 43.4264C35.2872 42.4595 37.5231 40.9914 39.3645 39.1462ZM7.75998 26.9661C7.3995 22.4707 8.65875 18.2287 11.2837 14.6003L11.2855 14.5979L12.0465 13.6386C12.1303 13.5314 12.2316 13.4424 12.314 13.3358C12.4247 13.1928 12.5531 13.0565 12.678 12.9265C12.8356 12.7625 12.9981 12.603 13.1617 12.4449C13.4404 12.1761 13.7243 11.9129 14.01 11.6511C15.7679 10.0404 18.3417 8.70934 20.6051 8.00105C26.3607 6.19966 32.6573 7.53002 37.3245 11.3221C37.6748 11.6066 38.0183 11.9277 38.3471 12.2375C38.5447 12.4236 38.741 12.6121 38.9327 12.8042C39.075 12.9468 39.2226 13.0951 39.3523 13.2496C39.4386 13.3523 39.5135 13.4585 39.606 13.5563C40.0893 14.0658 40.5232 14.6771 40.9084 15.2644C41.271 15.8171 41.6123 16.3891 41.9279 16.9705C43.0918 19.115 43.777 21.6632 43.9708 24.0937C44.183 26.7558 43.7763 29.541 42.835 32.037C42.4499 33.0583 42.0017 34.0171 41.4296 34.9462C40.9735 35.6868 40.4582 36.3873 39.932 37.0781C39.4411 37.7226 38.8426 38.2581 38.2977 38.8522L38.2914 38.8592L37.0736 39.9028L37.0711 39.9046C30.5591 45.0393 21.7273 45.0834 15.0545 40.2134C14.51 39.8159 14.0117 39.3708 13.5051 38.9272C13.3972 38.8329 13.3207 38.7246 13.2215 38.6247C12.8475 38.2469 12.4414 37.8842 12.1119 37.4654C11.8144 37.0869 11.5123 36.7119 11.2215 36.3285C10.6713 35.603 10.195 34.874 9.7997 34.0504C9.30213 33.0145 8.84074 31.9627 8.49417 30.8647C8.08985 29.5848 7.86715 28.3032 7.75998 26.9661Z" fill="#1464C0"/>
<path d="M6.20251 21.8224C6.15623 22.101 6.05428 22.3418 5.89665 22.5454C5.73938 22.749 5.54348 22.8966 5.30895 22.9881C5.07443 23.0795 4.82529 23.103 4.56189 23.0581C4.29814 23.0136 4.07058 22.9095 3.87851 22.7459C3.68678 22.5826 3.54934 22.3786 3.46653 22.1343C3.38336 21.8904 3.36527 21.6289 3.4119 21.3503C3.45817 21.0721 3.56013 20.8309 3.7174 20.6273C3.87503 20.424 4.07023 20.2762 4.30371 20.1847C4.53684 20.0929 4.78632 20.0694 5.05251 20.1146C5.3187 20.1594 5.54696 20.2639 5.73764 20.4272C5.92832 20.5905 6.06506 20.7941 6.14788 21.0384C6.23069 21.2827 6.24913 21.5438 6.20251 21.8224ZM5.7606 21.7478C5.79122 21.5655 5.77765 21.3945 5.72059 21.235C5.66352 21.0756 5.56888 20.9417 5.43665 20.8337C5.30478 20.7258 5.1482 20.6568 4.96726 20.6259C4.78632 20.5954 4.61583 20.6094 4.45611 20.668C4.29605 20.7265 4.16348 20.8218 4.0577 20.954C3.95192 21.0857 3.88407 21.2431 3.85345 21.4253C3.82318 21.6072 3.83675 21.7782 3.89382 21.9377C3.95088 22.0972 4.04552 22.231 4.17775 22.339C4.30962 22.4469 4.4662 22.5163 4.64714 22.5468C4.82808 22.5773 4.99823 22.5633 5.15829 22.5048C5.318 22.4462 5.45092 22.3509 5.5567 22.2188C5.66248 22.087 5.73033 21.93 5.7606 21.7478ZM4.47386 18.951C4.51283 18.902 4.5612 18.8687 4.6193 18.8515C4.67776 18.834 4.74074 18.8354 4.80859 18.8554C4.89906 18.8817 4.96517 18.9325 5.00623 19.0078C5.04729 19.0832 5.05529 19.1638 5.03059 19.25C5.00414 19.3411 4.95369 19.4073 4.87888 19.4487C4.80407 19.4901 4.7216 19.4974 4.63114 19.4711C4.58555 19.4578 4.54345 19.4392 4.50378 19.4154C4.46446 19.3912 4.4067 19.3506 4.3305 19.2924L3.85276 18.9342L3.94044 18.63L4.47386 18.951ZM7.27804 16.7449L7.68202 16.9005L6.8424 19.1077L6.52297 18.9843L5.25641 16.7487L4.68681 18.2459L4.28318 18.0903L5.09461 15.957L5.41369 16.0804L6.6806 18.316L7.27804 16.7449ZM7.64339 14.0694C7.7617 13.9615 7.89392 13.8973 8.03937 13.8777C8.18447 13.8581 8.33235 13.8914 8.48267 13.9776C8.6897 14.0964 8.80418 14.2685 8.8261 14.4938C8.84767 14.7192 8.77182 14.9852 8.59784 15.2925L7.92002 16.489L5.53025 15.1159L6.1691 13.9881C6.32986 13.7039 6.50906 13.5167 6.70635 13.4263C6.90399 13.3362 7.09919 13.3468 7.29265 13.4578C7.41096 13.5258 7.50038 13.6135 7.56023 13.721C7.62008 13.8283 7.64757 13.9443 7.64339 14.0694ZM6.13152 14.8692L6.79055 15.2477L7.14895 14.6147C7.23698 14.4591 7.277 14.3231 7.26865 14.2075C7.26029 14.0918 7.20253 14.0032 7.09571 13.9418C6.98645 13.8791 6.88033 13.8735 6.77698 13.925C6.67399 13.9765 6.5783 14.0803 6.48992 14.2362L6.13152 14.8692ZM8.23388 15.1198C8.43012 14.7738 8.41307 14.5345 8.18307 14.4024C7.95342 14.2706 7.74047 14.3775 7.54423 14.7237L7.13538 15.4457L7.82503 15.8421L8.23388 15.1198ZM10.4016 12.0034L10.7357 12.2736L9.44303 13.8938L7.29822 12.158L8.55643 10.5812L8.89047 10.8514L7.95238 12.0273L8.50981 12.4787L9.34212 11.4353L9.66989 11.7006L8.83793 12.744L9.42911 13.2223L10.4016 12.0034ZM10.9813 10.3317L10.9789 10.9618L11.4678 11.4714L11.1003 11.8289L9.18832 9.83614L9.55576 9.47867L10.5363 10.5006L10.5339 8.5268L10.9465 8.12517L10.9702 9.82493L12.9094 10.0682L12.4796 10.4866L10.9813 10.3317ZM11.5329 7.67693L11.9382 7.36361L13.6129 9.56243L13.2076 9.87575L11.5329 7.67693ZM14.9341 8.66384C14.756 8.78019 14.5674 8.86711 14.3687 8.92493C14.17 8.98241 13.995 9.00063 13.8443 8.97961L13.7765 8.54748C13.9195 8.5608 14.075 8.54643 14.2431 8.50437C14.4111 8.46232 14.5646 8.39573 14.7031 8.30531C14.8743 8.19316 14.9846 8.08206 15.0336 7.97132C15.0827 7.86057 15.0778 7.75999 15.0194 7.66922C14.9766 7.60263 14.9178 7.56338 14.8426 7.55111C14.7675 7.53884 14.6857 7.5441 14.5977 7.56723C14.5093 7.59036 14.3927 7.62716 14.2473 7.67798C14.0444 7.75087 13.8749 7.80204 13.7392 7.83078C13.6032 7.85987 13.4671 7.85531 13.3314 7.81641C13.1957 7.77786 13.0785 7.68218 12.9804 7.52938C12.8975 7.40076 12.8568 7.26162 12.8582 7.11128C12.86 6.96058 12.9104 6.80882 13.0099 6.65567C13.1098 6.50252 13.2608 6.35988 13.463 6.22775C13.6035 6.13558 13.7535 6.06303 13.9125 6.00906C14.0715 5.95544 14.2222 5.92951 14.3638 5.93161L14.4446 6.35532C14.305 6.36163 14.1704 6.38511 14.0406 6.42577C13.9104 6.46677 13.7939 6.52074 13.6905 6.58838C13.5214 6.69913 13.4139 6.81023 13.3687 6.92167C13.3234 7.03277 13.3314 7.13616 13.3927 7.23148C13.4355 7.29772 13.4939 7.33662 13.5684 7.34784C13.6429 7.35905 13.7239 7.3531 13.8123 7.32997C13.9007 7.30683 14.0173 7.27004 14.1627 7.21922C14.3597 7.14702 14.527 7.09656 14.6648 7.06782C14.8026 7.03908 14.939 7.04364 15.074 7.08113C15.209 7.11863 15.3252 7.21291 15.422 7.36326C15.5048 7.49188 15.5451 7.63066 15.5431 7.77996C15.5406 7.92926 15.4891 8.08101 15.3886 8.23487C15.2877 8.38872 15.1363 8.53171 14.9341 8.66384ZM15.6687 5.48722L14.8642 5.91899L14.6606 5.53488L16.7209 4.42881L16.9244 4.81292L16.1196 5.24505L17.2105 7.30613L16.7595 7.54831L15.6687 5.48722ZM19.5839 6.39878C19.317 6.48569 19.0578 6.50532 18.8058 6.45836C18.5539 6.41105 18.3337 6.3038 18.1451 6.13628C17.9565 5.96876 17.8211 5.75708 17.7394 5.50089C17.6572 5.2447 17.644 4.99306 17.6997 4.74634C17.7557 4.49926 17.8719 4.28267 18.049 4.09622C18.2261 3.90942 18.4481 3.77309 18.7147 3.68618C18.9816 3.59961 19.2411 3.57964 19.4927 3.6266C19.7446 3.67391 19.9649 3.78045 20.1531 3.94692C20.341 4.11304 20.4767 4.32543 20.5595 4.58407C20.6424 4.84271 20.6559 5.09505 20.5996 5.34072C20.5435 5.5864 20.4266 5.80264 20.2499 5.98909C20.0727 6.17553 19.8508 6.31221 19.5839 6.39878ZM19.4464 5.96946C19.6208 5.91268 19.7652 5.82191 19.8796 5.6975C19.9938 5.57308 20.0682 5.42694 20.1027 5.25907C20.1368 5.09119 20.126 4.91912 20.0696 4.74353C20.0132 4.5676 19.9224 4.4218 19.7972 4.3058C19.6719 4.1898 19.5268 4.1148 19.3619 4.08115C19.1969 4.04751 19.0271 4.05907 18.8525 4.11585C18.6778 4.17262 18.5334 4.26304 18.4193 4.38746C18.3048 4.51222 18.2307 4.65837 18.1962 4.82624C18.1618 4.99411 18.1729 5.16584 18.2293 5.34143C18.2856 5.51736 18.3765 5.6635 18.5017 5.77916C18.627 5.89516 18.7721 5.97016 18.937 6.0038C19.102 6.03745 19.2718 6.02623 19.4464 5.96946ZM23.474 2.66072L23.9295 5.39364L23.5151 5.46374L21.7102 3.86632L22.0185 5.71677L21.5185 5.80124L21.063 3.06831L21.4778 2.99821L23.2826 4.59599L22.974 2.74518L23.474 2.66072ZM27.5569 5.37928L27.0072 4.55919C26.9835 4.56129 26.948 4.56199 26.901 4.56129L26.2799 4.55183L26.2678 5.3593L25.757 5.35159L25.7987 2.58081L26.9306 2.59798C27.169 2.60184 27.376 2.6446 27.5517 2.72625C27.7274 2.80826 27.8614 2.92392 27.9533 3.07286C28.0455 3.22216 28.09 3.39845 28.0869 3.60172C28.0837 3.81024 28.0305 3.98863 27.9275 4.13758C27.8242 4.28652 27.6777 4.39657 27.488 4.46737L28.1071 5.38769L27.5569 5.37928ZM27.5719 3.59366C27.5747 3.41702 27.519 3.27999 27.4052 3.18326C27.2915 3.08653 27.123 3.03642 26.9004 3.03326L26.3033 3.0238L26.2866 4.12847L26.8836 4.13758C27.1063 4.14108 27.2761 4.09517 27.3931 4.0009C27.5096 3.90627 27.5695 3.77064 27.5719 3.59366ZM30.7279 5.45357L30.6569 5.87939L28.6217 5.53523L29.0772 2.8023L31.0581 3.137L30.9871 3.56281L29.5104 3.31293L29.3917 4.02368L30.7021 4.24517L30.6322 4.66292L29.3221 4.44143L29.1965 5.19493L30.7279 5.45357ZM32.0045 6.34481C31.8051 6.27191 31.6225 6.17308 31.4568 6.04831C31.2916 5.9232 31.1715 5.79388 31.0971 5.66L31.3984 5.34493C31.4739 5.46794 31.5793 5.58395 31.714 5.69364C31.849 5.80299 31.9937 5.88605 32.1489 5.94282C32.3413 6.01292 32.4958 6.03394 32.6131 6.00661C32.7304 5.97927 32.8073 5.91444 32.8438 5.8128C32.8706 5.7385 32.8661 5.66736 32.8306 5.59972C32.7947 5.53173 32.7411 5.4697 32.6698 5.41257C32.5985 5.35579 32.4986 5.2843 32.3706 5.19844C32.1903 5.07928 32.048 4.97379 31.9429 4.88232C31.8379 4.79084 31.7596 4.6787 31.7084 4.54622C31.6569 4.41374 31.6621 4.26199 31.7237 4.09097C31.7756 3.94692 31.8612 3.83022 31.9812 3.7405C32.1013 3.65113 32.2519 3.59996 32.4332 3.5877C32.6148 3.57508 32.8187 3.61013 33.0456 3.69284C33.2032 3.75031 33.3515 3.82671 33.49 3.92239C33.6281 4.01772 33.7394 4.12286 33.8236 4.23781L33.5369 4.55849C33.4478 4.45019 33.3476 4.35592 33.237 4.27636C33.1263 4.19681 33.0132 4.13583 32.8974 4.09342C32.7077 4.02438 32.555 4.0051 32.4395 4.03594C32.3239 4.06678 32.2467 4.13547 32.2084 4.24237C32.1816 4.31667 32.1865 4.38711 32.2223 4.4537C32.2585 4.52029 32.3121 4.58197 32.3838 4.63874C32.4551 4.69587 32.555 4.76736 32.6827 4.85323C32.8591 4.96783 33 5.07192 33.1058 5.16514C33.2116 5.25872 33.2902 5.37086 33.3421 5.50194C33.3939 5.63301 33.3894 5.78301 33.3288 5.95194C33.277 6.09563 33.1914 6.21198 33.0717 6.3003C32.9524 6.38862 32.8013 6.43873 32.6187 6.45065C32.436 6.46256 32.2314 6.42752 32.0045 6.34481ZM35.7158 4.82764C35.9326 4.92823 36.1048 5.05124 36.2325 5.19773C36.3606 5.34388 36.4368 5.50404 36.4612 5.67822C36.4855 5.85205 36.4556 6.03149 36.3714 6.21619C36.2882 6.39843 36.173 6.53756 36.0255 6.63324C35.878 6.72892 35.7075 6.77588 35.5137 6.77343C35.3202 6.77097 35.1153 6.71945 34.8985 6.61922L34.3341 6.35777L34.0028 7.08464L33.5383 6.8698L34.6873 4.35171L35.7158 4.82764ZM35.0575 6.21373C35.26 6.30731 35.4333 6.33499 35.5773 6.29749C35.7214 6.25929 35.8303 6.16011 35.9037 5.9996C35.9768 5.83874 35.981 5.69119 35.9156 5.55626C35.8501 5.42133 35.7162 5.30708 35.514 5.21351L34.9712 4.96222L34.5147 5.96245L35.0575 6.21373ZM37.029 8.81664C36.7075 8.61267 36.514 8.36244 36.4483 8.06664C36.3825 7.77085 36.4559 7.45298 36.6682 7.11338L37.4956 5.79037L37.9278 6.06479L37.1108 7.37097C36.823 7.83113 36.8766 8.1865 37.2712 8.43673C37.6637 8.68556 38.0036 8.58007 38.2914 8.12026L39.1084 6.81373L39.5343 7.08394L38.7069 8.40695C38.4943 8.74655 38.242 8.95052 37.9497 9.01921C37.6574 9.0879 37.3505 9.02061 37.029 8.81664ZM41.011 10.2118C41.0872 10.3534 41.1179 10.4978 41.1025 10.6447C41.0872 10.7915 41.0201 10.9285 40.9011 11.0551C40.7375 11.2296 40.5444 11.3007 40.3221 11.2688C40.0994 11.237 39.8607 11.0996 39.6056 10.8563L38.6115 9.91009L40.5016 7.89632L41.4383 8.78825C41.6746 9.01325 41.8127 9.23264 41.8531 9.44713C41.8934 9.66161 41.8371 9.85051 41.684 10.0135C41.5904 10.1134 41.4846 10.1796 41.367 10.2129C41.2494 10.2462 41.1307 10.2458 41.011 10.2118ZM40.5977 8.54328L40.0764 9.09841L40.6018 9.59888C40.7316 9.72224 40.8531 9.79339 40.9665 9.81266C41.0803 9.83194 41.1794 9.79619 41.264 9.70612C41.3503 9.61395 41.3809 9.51161 41.3555 9.39841C41.3301 9.28521 41.2525 9.16675 41.1231 9.04374L40.5977 8.54328ZM39.8582 10.5413C40.1457 10.815 40.3802 10.8549 40.5622 10.6615C40.7438 10.4677 40.6909 10.2339 40.4035 9.96021L39.8036 9.38895L39.2584 9.97002L39.8582 10.5413ZM42.8364 10.2104L43.1694 10.6009L41.4101 12.1226L42.3475 13.2216L42.0198 13.5055L40.7494 12.016L42.8364 10.2104ZM44.4631 12.2862L44.7561 12.7079L42.5017 14.2965L42.2087 13.8746L44.4631 12.2862ZM44.382 15.1821L43.7773 15.0206L43.1642 15.3679L42.9137 14.9193L45.3118 13.5609L45.5623 14.0095L44.3323 14.7062L46.229 15.2032L46.5101 15.7071L44.8716 15.2999L44.1468 17.1276L43.8542 16.6033L44.382 15.1821ZM45.4638 18.786L44.9454 17.5026L44.2536 17.4914L44.055 17L47.07 17.1108L47.2596 17.58L45.1792 19.783L44.9777 19.2843L45.4638 18.786ZM45.7714 18.4762L46.69 17.5359L45.3821 17.512L45.7714 18.4762ZM45.3459 20.9995C45.2982 20.7913 45.2815 20.5832 45.2958 20.3757C45.31 20.1679 45.3528 19.9958 45.4238 19.8601L45.8504 19.9439C45.7888 20.0746 45.7492 20.2267 45.7311 20.4002C45.713 20.5737 45.7224 20.7416 45.7596 20.9035C45.8055 21.104 45.872 21.2466 45.9583 21.3307C46.0449 21.4148 46.1406 21.4446 46.245 21.4204C46.3219 21.4025 46.3786 21.3601 46.4158 21.2936C46.4527 21.2266 46.4757 21.1474 46.4844 21.0559C46.4931 20.9645 46.4983 20.8415 46.5007 20.6865C46.5018 20.4696 46.5122 20.2919 46.5317 20.1531C46.5508 20.0147 46.602 19.8878 46.6845 19.7725C46.7669 19.6569 46.896 19.5791 47.0724 19.5381C47.2203 19.5034 47.3644 19.5128 47.5042 19.5654C47.6441 19.6183 47.7683 19.7182 47.8773 19.8647C47.9862 20.0115 48.0679 20.2029 48.1222 20.4398C48.1598 20.6042 48.1765 20.771 48.172 20.9399C48.1678 21.1089 48.1407 21.2603 48.0906 21.3938L47.6674 21.3254C47.7092 21.1912 47.7332 21.0556 47.7398 20.9186C47.7461 20.7815 47.7353 20.6529 47.7075 20.532C47.6622 20.334 47.5951 20.1945 47.5067 20.1135C47.4183 20.0326 47.3191 20.0045 47.2092 20.0301C47.1326 20.048 47.0766 20.0901 47.0408 20.1566C47.0049 20.2232 46.9827 20.3024 46.974 20.3936C46.9653 20.485 46.96 20.6084 46.9576 20.7633C46.958 20.9743 46.9475 21.1502 46.9273 21.2904C46.9068 21.4302 46.8564 21.5582 46.7749 21.6731C46.6939 21.7881 46.5665 21.8659 46.3929 21.9062C46.2446 21.9405 46.1013 21.931 45.9628 21.8781C45.8243 21.8249 45.7004 21.7246 45.5912 21.5764C45.4819 21.4285 45.4002 21.2364 45.3459 20.9995ZM48.402 22.2177L48.4716 22.7277L45.7457 23.1041L45.6761 22.5945L48.402 22.2177Z" fill="#1464C0"/>
<path d="M3.1206 29.2821C3.08128 29.0575 3.07502 28.8349 3.10146 28.6145C3.12825 28.394 3.18323 28.2132 3.26639 28.0727L3.7163 28.1859C3.64358 28.3218 3.59278 28.4817 3.5639 28.6653C3.53502 28.8493 3.53571 29.0284 3.56633 29.2029C3.60426 29.4191 3.66689 29.5748 3.75423 29.669C3.84191 29.7637 3.94212 29.8008 4.05486 29.7808C4.13733 29.7661 4.20031 29.7244 4.2438 29.6554C4.28695 29.586 4.31548 29.5029 4.32975 29.4062C4.34401 29.3095 4.35654 29.1784 4.36768 29.0137C4.38125 28.7824 4.40212 28.5938 4.43031 28.4473C4.45849 28.3008 4.51973 28.1683 4.61403 28.0502C4.70832 27.9318 4.85029 27.8561 5.04028 27.8221C5.19999 27.7937 5.35274 27.8119 5.49888 27.8757C5.64502 27.9398 5.77168 28.0534 5.87989 28.2157C5.98776 28.3779 6.06396 28.5868 6.1085 28.8416C6.13947 29.0193 6.14817 29.1977 6.13425 29.3774C6.12033 29.5572 6.08275 29.7167 6.02221 29.8562L5.57508 29.7598C5.62728 29.6189 5.66033 29.4759 5.6746 29.3305C5.68887 29.185 5.68469 29.047 5.66173 28.9166C5.62449 28.7031 5.56082 28.551 5.47105 28.4596C5.38127 28.3685 5.27723 28.3334 5.15893 28.3541C5.07646 28.3688 5.01418 28.4109 4.97242 28.4796C4.93032 28.5486 4.90248 28.6313 4.88822 28.7284C4.87395 28.8251 4.86143 28.9558 4.85029 29.1209C4.83881 29.3459 4.81828 29.5323 4.7887 29.6806C4.75947 29.8288 4.69823 29.9617 4.60533 30.0798C4.51243 30.1979 4.3722 30.2732 4.18535 30.3065C4.02563 30.3349 3.87358 30.317 3.72883 30.2526C3.58408 30.1881 3.45777 30.0742 3.34956 29.9105C3.24134 29.7465 3.16514 29.5373 3.1206 29.2821ZM3.82208 32.3235C3.73996 32.034 3.72848 31.7547 3.78763 31.4858C3.84644 31.217 3.96787 30.9847 4.15229 30.7881C4.33636 30.5918 4.56531 30.4541 4.8395 30.3756C5.11369 30.2967 5.38058 30.2915 5.6398 30.3605C5.89903 30.4295 6.12416 30.5624 6.31519 30.7593C6.50622 30.9559 6.64262 31.1995 6.72473 31.489C6.80685 31.7788 6.81833 32.0578 6.75953 32.3266C6.70038 32.5954 6.57963 32.8278 6.39661 33.0237C6.21393 33.2196 5.98393 33.3577 5.70731 33.4372C5.43033 33.5168 5.1631 33.5217 4.90492 33.4527C4.64708 33.3833 4.42265 33.2501 4.23162 33.0531C4.0406 32.8565 3.9042 32.6133 3.82208 32.3235ZM4.28173 32.1913C4.33532 32.3809 4.42613 32.5393 4.55383 32.6666C4.68118 32.7938 4.83324 32.8789 5.00966 32.9217C5.18607 32.9648 5.3684 32.9592 5.55664 32.9052C5.74454 32.8509 5.90251 32.7587 6.02952 32.6287C6.15687 32.4983 6.24142 32.3452 6.28318 32.1693C6.32493 31.9933 6.31902 31.8107 6.26508 31.6211C6.2115 31.4315 6.12068 31.2731 5.99333 31.1459C5.86563 31.0187 5.71357 30.9335 5.53716 30.8908C5.36074 30.8476 5.17841 30.8533 4.99052 30.9072C4.80227 30.9615 4.64465 31.0537 4.5173 31.1837C4.38994 31.3141 4.30539 31.4673 4.26364 31.6432C4.22188 31.8191 4.22814 32.0017 4.28173 32.1913ZM6.77484 35.5786L6.98744 36.0521L5.92165 36.5371C5.74976 36.4484 5.59318 36.3251 5.45191 36.167C5.31029 36.0089 5.19581 35.8327 5.10847 35.6375C4.9853 35.363 4.93345 35.0886 4.95294 34.8142C4.97208 34.5394 5.05802 34.292 5.21043 34.0712C5.36318 33.8504 5.57056 33.6801 5.83257 33.5609C6.09493 33.4414 6.35903 33.3969 6.62417 33.4278C6.88932 33.4583 7.13115 33.5574 7.34897 33.7257C7.56714 33.8935 7.73833 34.1161 7.86255 34.393C7.96381 34.619 8.01913 34.8408 8.02818 35.0592C8.03688 35.2775 7.99825 35.4818 7.91231 35.6725L7.46484 35.4962C7.57653 35.1983 7.56748 34.9043 7.43735 34.6144C7.3521 34.4245 7.23693 34.2738 7.09183 34.1623C6.94673 34.0509 6.78423 33.9857 6.60399 33.9675C6.4241 33.9489 6.24247 33.9815 6.05909 34.0649C5.88059 34.1462 5.73897 34.2608 5.63354 34.4091C5.52846 34.5573 5.46826 34.7238 5.45295 34.9085C5.43764 35.0932 5.47209 35.2789 5.55595 35.4664C5.65024 35.6767 5.77899 35.8404 5.94218 35.9578L6.77484 35.5786ZM8.28567 36.2231C8.29436 36.2897 8.28358 36.3517 8.25365 36.4095C8.22373 36.4674 8.17606 36.515 8.11064 36.5529C8.02331 36.603 7.93562 36.6163 7.84794 36.5921C7.76025 36.5683 7.69275 36.5147 7.64543 36.4316C7.59567 36.3436 7.58245 36.2553 7.60645 36.167C7.63012 36.0787 7.68579 36.0093 7.77313 35.9592C7.81662 35.9339 7.86255 35.915 7.90987 35.9021C7.95719 35.8894 8.03131 35.8751 8.13187 35.8593L8.75889 35.7556L8.92556 36.0489L8.28567 36.2231ZM8.92765 36.4085L9.24359 36.856L7.22823 38.3003L8.11795 39.5595L7.74216 39.829L6.53649 38.1223L8.92765 36.4085ZM10.2374 38.2221L10.5947 38.6364L8.37996 40.5755L8.02226 40.1613L10.2374 38.2221ZM10.9103 43.5755C10.7603 43.5913 10.618 43.5755 10.4834 43.5282C10.3487 43.4805 10.2259 43.4034 10.1145 43.2969C9.96873 43.157 9.86643 42.9958 9.80763 42.8132C9.74847 42.6303 9.7182 42.3829 9.71646 42.0702C9.53553 41.8656 9.41374 41.6392 9.35146 41.3907C9.28882 41.1426 9.28987 40.8965 9.35389 40.653C9.41826 40.4094 9.54283 40.1896 9.7276 39.9941C9.92419 39.7859 10.1518 39.6454 10.4099 39.5721C10.6681 39.4992 10.9287 39.4985 11.1925 39.5707C11.4562 39.6426 11.6967 39.7824 11.9131 39.9902C12.1299 40.1981 12.2806 40.4325 12.3651 40.6943C12.4497 40.9561 12.4625 41.2179 12.4037 41.4804C12.3449 41.7426 12.2162 41.9788 12.0178 42.1891C11.8578 42.3583 11.6765 42.4827 11.474 42.5623C11.2711 42.6422 11.0624 42.6751 10.8477 42.6618C10.6326 42.6482 10.4253 42.5882 10.2248 42.4817C10.2238 42.6012 10.2384 42.7021 10.268 42.7852C10.2976 42.8679 10.3449 42.9405 10.4096 43.0025C10.5495 43.1367 10.7248 43.1959 10.936 43.1805L10.9103 43.5755ZM10.1257 40.3754C9.99065 40.518 9.90123 40.6782 9.85704 40.8555C9.81319 41.0329 9.81737 41.2077 9.87026 41.3809C9.9228 41.5537 10.0199 41.7082 10.1618 41.8438C10.3035 41.9798 10.4614 42.0699 10.6354 42.1144C10.8094 42.1589 10.9834 42.1544 11.157 42.1014C11.3306 42.0482 11.4851 41.9504 11.6198 41.8077C11.7548 41.6648 11.8442 41.5049 11.8884 41.3276C11.9323 41.1503 11.9281 40.975 11.8752 40.8023C11.8226 40.6291 11.7256 40.4749 11.5836 40.3389C11.442 40.203 11.284 40.1129 11.11 40.0684C10.936 40.0242 10.7621 40.0284 10.5884 40.0817C10.4148 40.1346 10.2603 40.2328 10.1257 40.3754ZM15.2782 42.7372L13.5837 45.1505L13.2173 44.8894L13.0436 42.3142L11.8961 43.9484L11.4545 43.6337L13.1494 41.2204L13.5155 41.4815L13.6891 44.0567L14.8366 42.4225L15.2782 42.7372ZM15.7382 42.9688L16.2107 43.2418L14.7497 45.8055L14.2771 45.5321L15.7382 42.9688ZM17.3162 47.077C17.1053 46.9939 16.9136 46.8835 16.7403 46.7455C16.5674 46.6077 16.4432 46.4665 16.3673 46.3217L16.6975 45.9937C16.7748 46.1272 16.8837 46.2541 17.0242 46.3747C17.1652 46.4952 17.3176 46.5877 17.4815 46.6526C17.6843 46.7325 17.8486 46.7598 17.9745 46.7335C18.1001 46.7076 18.184 46.641 18.2257 46.5334C18.2564 46.4549 18.2536 46.3789 18.2174 46.3056C18.1812 46.2327 18.1259 46.1647 18.0514 46.102C17.9766 46.0393 17.8722 45.9601 17.7383 45.8651C17.5493 45.733 17.4004 45.6166 17.2908 45.516C17.1815 45.4154 17.1011 45.2938 17.05 45.1512C16.9988 45.0085 17.0086 44.8466 17.0789 44.6658C17.138 44.514 17.233 44.3917 17.3635 44.2996C17.4936 44.2074 17.6558 44.1573 17.8496 44.1492C18.0434 44.1411 18.2602 44.1843 18.4996 44.2785C18.6659 44.3444 18.8218 44.4299 18.9669 44.5358C19.112 44.6413 19.2275 44.7566 19.3141 44.8813L18.9996 45.2153C18.9074 45.0972 18.8033 44.9942 18.6875 44.9062C18.5716 44.8182 18.4526 44.7499 18.3305 44.7019C18.1301 44.6227 17.9679 44.5978 17.8437 44.6276C17.7195 44.657 17.6356 44.7285 17.5918 44.841C17.5611 44.9199 17.5643 44.9949 17.6008 45.0667C17.6373 45.1386 17.693 45.2062 17.7675 45.2686C17.8423 45.3313 17.9467 45.4105 18.0806 45.5059C18.2654 45.6331 18.4126 45.748 18.5229 45.8504C18.6332 45.9527 18.7139 46.0747 18.7658 46.2159C18.8173 46.3571 18.8086 46.517 18.739 46.6953C18.6798 46.8474 18.5855 46.9687 18.4554 47.0595C18.3256 47.1506 18.1631 47.1997 17.9679 47.2074C17.773 47.2151 17.5556 47.1716 17.3162 47.077ZM20.9725 47.499L19.5619 47.0921L19.097 47.6693L18.5566 47.5137L20.6343 45.038L21.1503 45.1869L21.6159 48.3961L21.0678 48.2381L20.9725 47.499ZM20.9172 47.0349L20.7383 45.639L19.857 46.729L20.9172 47.0349ZM24.9994 49.0631C24.8877 49.1651 24.7635 49.2369 24.6271 49.2786C24.4907 49.3207 24.3463 49.3315 24.1939 49.3116C23.9942 49.2856 23.8171 49.2166 23.6626 49.1041C23.5077 48.9916 23.3379 48.81 23.1535 48.5588C22.8873 48.5016 22.6563 48.3912 22.4604 48.2279C22.2641 48.0646 22.1208 47.8659 22.0296 47.6311C21.9384 47.3966 21.9103 47.145 21.9447 46.8772C21.9812 46.5923 22.0821 46.3435 22.2474 46.1311C22.4127 45.9184 22.6229 45.7627 22.8779 45.6639C23.133 45.5651 23.4089 45.5349 23.7057 45.5735C24.0022 45.612 24.2614 45.7119 24.483 45.8728C24.7047 46.0337 24.8689 46.2373 24.9754 46.484C25.0819 46.7307 25.1167 46.9978 25.0794 47.2852C25.0499 47.5168 24.9764 47.7254 24.8599 47.9104C24.743 48.0951 24.594 48.2461 24.4128 48.3628C24.2315 48.4799 24.029 48.5549 23.8049 48.5882C23.8741 48.6853 23.9451 48.7585 24.0175 48.8076C24.0902 48.8567 24.1709 48.8871 24.2597 48.8987C24.4507 48.9236 24.6271 48.8672 24.7885 48.7291L24.9994 49.0631ZM22.4893 46.948C22.4642 47.1436 22.4858 47.3258 22.5543 47.4951C22.6229 47.6644 22.729 47.8032 22.8727 47.9111C23.0168 48.0194 23.1859 48.086 23.3797 48.1116C23.5738 48.1368 23.7541 48.1154 23.9207 48.0478C24.0871 47.9798 24.2249 47.8729 24.3338 47.7268C24.4427 47.5806 24.5098 47.4099 24.5349 47.2144C24.5599 47.0188 24.5384 46.8366 24.4698 46.6673C24.4013 46.498 24.2951 46.3592 24.1511 46.2509C24.0074 46.143 23.8383 46.0764 23.6441 46.0508C23.4503 46.0256 23.2701 46.047 23.1034 46.1146C22.9371 46.1823 22.7993 46.2895 22.6904 46.4356C22.5815 46.5818 22.5143 46.7525 22.4893 46.948ZM25.4103 45.7417L25.9552 45.7291L26.0123 48.2199L27.5465 48.1841L27.5569 48.6485L25.4778 48.6968L25.4103 45.7417ZM29.8089 47.6742L28.3537 47.8634L28.1536 48.5794L27.5966 48.652L28.5301 45.5497L29.0621 45.4806L30.7525 48.2409L30.1867 48.3145L29.8089 47.6742ZM29.575 47.2701L28.8617 46.0603L28.4818 47.4124L29.575 47.2701ZM31.9968 47.8953C31.779 47.9577 31.5598 47.9868 31.3392 47.9829C31.1186 47.9787 30.9349 47.9419 30.7873 47.8729L30.8531 47.411C30.9947 47.4699 31.1575 47.5042 31.3423 47.5144C31.5267 47.5245 31.7035 47.5053 31.8729 47.4569C32.0828 47.3966 32.2296 47.3181 32.3141 47.2207C32.3984 47.1233 32.4248 47.0192 32.3935 46.9081C32.3705 46.8268 32.3228 46.7682 32.2501 46.7318C32.1774 46.6957 32.0925 46.6754 31.9954 46.6708C31.8983 46.6666 31.7679 46.6673 31.6036 46.6733C31.3743 46.6834 31.1857 46.682 31.0378 46.6687C30.8903 46.6554 30.7532 46.6074 30.6269 46.525C30.5006 46.4427 30.4108 46.3081 30.3583 46.1213C30.3137 45.9643 30.3158 45.8094 30.3642 45.6566C30.4126 45.5038 30.5114 45.365 30.6607 45.2402C30.8099 45.1154 31.0083 45.0177 31.2557 44.9469C31.4279 44.8974 31.6033 44.8708 31.7821 44.8663C31.961 44.8617 32.1224 44.8827 32.2665 44.9293L32.2167 45.3871C32.0727 45.3492 31.9279 45.331 31.7828 45.3313C31.6377 45.332 31.502 45.3503 31.3754 45.3867C31.1687 45.4459 31.0246 45.5251 30.9436 45.6243C30.8628 45.7238 30.8388 45.8314 30.8715 45.9481C30.8945 46.0291 30.9422 46.0873 31.0145 46.1223C31.0869 46.157 31.1715 46.1766 31.2685 46.1812C31.3656 46.1854 31.4961 46.1847 31.6603 46.1788C31.8837 46.1675 32.0702 46.1689 32.2195 46.1833C32.3688 46.1973 32.5066 46.245 32.6325 46.3259C32.7585 46.4069 32.8476 46.5397 32.8994 46.7237C32.944 46.8807 32.9415 47.0349 32.8928 47.1867C32.8441 47.3381 32.7442 47.4765 32.5939 47.6016C32.4432 47.7268 32.2442 47.8245 31.9968 47.8953ZM34.8271 43.6228L36.0355 46.3165L35.539 46.5425L35.0209 45.3881L33.6381 46.0179L34.1559 47.1723L33.6593 47.3984L32.4506 44.7047L32.9474 44.4786L33.4464 45.5907L34.8292 44.9612L34.3302 43.8492L34.8271 43.6228ZM38.4208 41.424L38.9229 44.6083L38.4705 44.8992L35.8097 43.1034L36.308 42.7831L38.3498 44.1751L37.9615 41.7194L38.4208 41.424ZM41.1258 41.9476L40.0183 42.917L40.2455 43.6246L39.8217 43.9957L38.893 40.8923L39.298 40.5377L42.2233 41.8929L41.7928 42.2697L41.1258 41.9476ZM40.7089 41.7415L39.4497 41.132L39.877 42.4701L40.7089 41.7415ZM43.6123 39.5602L43.9603 39.8651L42.3175 41.7671L42.0427 41.526L41.5851 38.8193L40.4706 40.1097L40.1226 39.8048L41.7104 37.9666L41.9856 38.2078L42.4432 40.9144L43.6123 39.5602ZM41.8562 37.749L42.1707 37.3008L44.5667 39.0075L44.2518 39.4558L41.8562 37.749ZM46.0177 36.7011L44.9735 36.7908C44.9634 36.814 44.9457 36.8476 44.9203 36.8914L44.589 37.4693L45.3295 37.9004L45.0567 38.3756L42.5159 36.8963L43.1199 35.8435C43.2473 35.6217 43.3945 35.4496 43.5615 35.3273C43.7285 35.205 43.9049 35.1394 44.0907 35.1307C44.2765 35.1219 44.4627 35.1717 44.6492 35.28C44.8402 35.3914 44.978 35.5341 45.0619 35.7082C45.1461 35.8824 45.1715 36.0769 45.1388 36.2918L46.3114 36.1894L46.0177 36.7011ZM44.3743 35.7591C44.2122 35.6648 44.0566 35.6459 43.9081 35.7023C43.7595 35.7587 43.6255 35.8905 43.5069 36.098L43.1878 36.6535L44.2007 37.2429L44.5194 36.6874C44.6384 36.4803 44.6843 36.2974 44.6576 36.1386C44.6308 35.9799 44.5365 35.8533 44.3743 35.7591ZM43.8781 34.4599L44.1033 33.9598L46.3559 34.9891L46.9899 33.5816L47.4099 33.7737L46.5504 35.6809L43.8781 34.4599ZM44.7442 32.3925L44.9206 31.8728L47.6973 32.8299L47.5209 33.3493L44.7442 32.3925ZM46.9596 29.7728L47.0752 29.2667L48.2154 29.5306C48.2986 29.7062 48.349 29.8996 48.3664 30.1117C48.3842 30.3237 48.3689 30.534 48.3215 30.7425C48.2544 31.0362 48.1305 31.2861 47.9499 31.4929C47.7693 31.6993 47.5522 31.844 47.2982 31.9267C47.0442 32.0094 46.7766 32.0182 46.4962 31.9534C46.2157 31.8882 45.9791 31.7627 45.7863 31.5766C45.5936 31.3902 45.461 31.1638 45.3886 30.8971C45.3162 30.6307 45.3138 30.3489 45.3817 30.0528C45.4366 29.8113 45.5261 29.601 45.6503 29.422C45.7745 29.2425 45.9279 29.1034 46.1113 29.0042L46.3612 29.4174C46.0932 29.5863 45.9238 29.826 45.8528 30.1359C45.8065 30.3391 45.8076 30.5291 45.8559 30.7064C45.9043 30.8837 45.9948 31.0348 46.127 31.1592C46.2592 31.2836 46.4231 31.3688 46.6193 31.414C46.81 31.4582 46.9916 31.4536 47.1646 31.3996C47.3375 31.346 47.4857 31.2503 47.6089 31.1126C47.7321 30.9749 47.8163 30.8059 47.8622 30.6058C47.9134 30.3808 47.9096 30.1719 47.8504 29.9792L46.9596 29.7728ZM45.7143 28.5079L45.7842 27.9637L48.6949 28.3425L48.625 28.8871L45.7143 28.5079Z" fill="#1464C0"/>
<path fill-rule="evenodd" clip-rule="evenodd" d="M46.9378 24.884H47.2593C47.2732 24.884 47.2847 24.8791 47.2944 24.8693L47.522 24.6405C47.5411 24.6208 47.5728 24.6208 47.5919 24.6405L47.8195 24.8693C47.8292 24.8791 47.8407 24.884 47.8546 24.884H48.1762C48.2036 24.884 48.2259 24.9065 48.2259 24.9338V25.258C48.2259 25.2716 48.2308 25.2836 48.2402 25.2934L48.4677 25.5222C48.4869 25.5418 48.4869 25.5734 48.4677 25.593L48.2402 25.8222C48.2308 25.8317 48.2259 25.8436 48.2259 25.8573V26.1814C48.2259 26.2088 48.2036 26.2312 48.1762 26.2312H47.8546C47.8407 26.2312 47.8292 26.2361 47.8195 26.2459L47.5919 26.4751C47.5728 26.4944 47.5411 26.4944 47.522 26.4751L47.2944 26.2459C47.2847 26.2361 47.2732 26.2312 47.2596 26.2312H46.9378C46.9103 26.2312 46.8884 26.2088 46.8884 26.1814V25.8573C46.8884 25.8436 46.8831 25.8317 46.8738 25.8219L46.6462 25.593C46.6271 25.5734 46.6271 25.5418 46.6462 25.5222L46.8738 25.2934C46.8831 25.2836 46.8884 25.2716 46.8884 25.258V24.9338C46.8884 24.9065 46.9103 24.884 46.9378 24.884Z" fill="#1464C0"/>
<path fill-rule="evenodd" clip-rule="evenodd" d="M15.7518 20.282V16.3327C15.7518 15.7831 16.1969 15.3349 16.7421 15.3349H20.6636C21.323 15.3349 21.9253 15.0839 22.3915 14.614L25.1644 11.8211C25.5503 11.4328 26.1794 11.4328 26.5649 11.8211L29.3381 14.614C29.8044 15.0839 30.4064 15.3349 31.0657 15.3349H34.9872C35.5328 15.3349 35.9775 15.7831 35.9775 16.3327V20.282C35.9775 20.9462 36.227 21.5528 36.6932 22.0225L39.4661 24.8153C39.852 25.204 39.852 25.8376 39.4661 26.2259L36.6932 29.0192C36.227 29.4888 35.9775 30.0951 35.9775 30.7596V34.7093C35.9775 35.2585 35.5328 35.7067 34.9872 35.7067H31.0657C30.4064 35.7067 29.8041 35.958 29.3378 36.4276L26.5649 39.2205C26.1794 39.6088 25.5503 39.6088 25.1644 39.2205L22.3915 36.4276C21.9253 35.958 21.3233 35.7067 20.6636 35.7067H16.7421C16.1969 35.7067 15.7518 35.2585 15.7518 34.7093V30.7592C15.7518 30.0951 15.5023 29.4888 15.0361 29.0188L12.2632 26.2259C11.8777 25.8376 11.8777 25.204 12.2632 24.8153L15.0361 22.0225C15.5023 21.5528 15.7518 20.9465 15.7518 20.282ZM20.6636 14.0035H15.5511C14.9334 14.0035 14.4296 14.5106 14.4296 15.133V20.282C14.4296 20.5933 14.3196 20.861 14.1011 21.0811L10.4862 24.7221C10.0495 25.1619 10.0495 25.8797 10.4862 26.3195L14.1011 29.9605C14.3196 30.1806 14.4296 30.4483 14.4296 30.7592V35.9086C14.4296 36.531 14.9334 37.0385 15.5511 37.0385H20.6636C20.9726 37.0385 21.2384 37.1492 21.4569 37.3693L25.0718 41.0103C25.5085 41.4502 26.2211 41.4502 26.6578 41.0103L30.2728 37.3693C30.4913 37.1492 30.7571 37.0385 31.0657 37.0385H36.1783C36.7959 37.0385 37.2997 36.531 37.2997 35.9086V30.7596C37.2997 30.4483 37.41 30.1806 37.6282 29.9605L41.2435 26.3195C41.6802 25.8797 41.6802 25.1619 41.2435 24.7221L37.6282 21.0808C37.41 20.861 37.2997 20.5933 37.2997 20.282V15.133C37.2997 14.5106 36.7959 14.0035 36.1783 14.0035H31.0657C30.7571 14.0035 30.4913 13.8924 30.2728 13.6726L26.6578 10.0313C26.2211 9.59146 25.5085 9.59146 25.0718 10.0313L21.4566 13.6726C21.2384 13.8924 20.9726 14.0035 20.6636 14.0035Z" fill="#1464C0"/>
<path fill-rule="evenodd" clip-rule="evenodd" d="M23.4941 31.8165H28.2319C28.3126 32.018 28.3989 32.324 28.3895 32.5826C26.7029 33.1914 25.0039 33.0757 23.333 32.5441C23.3361 32.2914 23.4092 32.0061 23.4941 31.8165ZM26.4461 16.8194C26.5651 16.8194 26.6615 16.9165 26.6615 17.0363C26.6615 17.1562 26.5651 17.2536 26.4461 17.2536C26.3268 17.2536 26.2304 17.1562 26.2304 17.0363C26.2304 16.9165 26.3268 16.8194 26.4461 16.8194ZM25.864 29.5932C26.2147 29.761 27.5453 30.6673 27.7179 30.9642H24.0004C24.2512 30.619 25.5693 29.7158 25.864 29.5932ZM23.8138 26.9878L27.9082 26.9766C27.7346 27.3383 27.3313 27.5682 26.9521 27.823C26.6396 28.0329 26.1775 28.3851 25.864 28.539C25.6034 28.4303 24.0139 27.3926 23.8138 26.9878ZM23.4523 24.8973H28.2646C28.4852 25.0673 28.4862 25.9609 28.2757 26.1236H23.4523C23.303 26.0773 23.3145 25.6837 23.3135 25.5351C23.3114 25.293 23.302 25.0028 23.4523 24.8973ZM25.864 22.4815C26.1713 22.6273 26.6469 22.9925 26.9559 23.1986C27.37 23.4751 27.7061 23.6713 27.9114 24.0309L23.8114 24.0372C24.0004 23.636 24.8838 23.1274 25.3017 22.8474C25.4771 22.73 25.6681 22.5621 25.864 22.4815ZM26.658 21.9572C26.7652 21.8163 27.3119 21.4887 27.5057 21.3593C27.6549 21.2598 27.8143 21.1627 27.9462 21.0502C28.6313 20.4639 29.0889 19.6974 29.235 18.6464C30.3961 19.0624 31.4828 20.1898 32.1046 21.236C33.168 23.0244 33.7449 25.7486 33.0521 27.8706C32.4689 29.6573 30.8749 31.5659 29.2402 32.2255C29.0429 31.9329 29.1379 30.7553 27.5098 29.6615C27.3146 29.5301 26.783 29.208 26.6584 29.0675C26.7871 28.9045 27.6883 28.3707 27.9785 28.1499C29.6087 26.9107 29.7253 24.3036 28.0297 22.9122C27.8971 22.8032 27.7329 22.6981 27.5645 22.5849C27.3578 22.4465 26.7969 22.1079 26.658 21.9572ZM25.0648 29.0675C24.6427 29.521 23.2404 29.8932 22.6541 31.6203C22.595 31.7948 22.5696 32.0482 22.4878 32.1992C21.4839 31.8726 20.0681 30.7175 19.5103 29.7705C17.9643 27.1462 17.8944 23.8515 19.551 21.2966C19.8941 20.7674 20.3795 20.2014 20.8339 19.8495C21.2181 19.5516 21.9648 18.9565 22.4878 18.7831C22.6569 19.157 22.5845 19.785 23.4255 20.7026C23.9878 21.3166 24.9012 21.7466 25.063 21.9572C24.9186 22.1086 24.4033 22.4174 24.1855 22.5635C23.825 22.8053 23.5929 22.9781 23.3399 23.2582C22.8625 23.7867 22.4714 24.502 22.4655 25.4903C22.4599 26.4071 22.8455 27.2682 23.3187 27.7441C23.6134 28.0402 23.7617 28.1699 24.1639 28.4394C24.3504 28.5642 24.9621 28.9427 25.0648 29.0675ZM25.864 21.4273C25.5602 21.298 24.2756 20.4131 24.0035 20.0566H27.7204C27.584 20.3398 26.196 21.2598 25.864 21.4273ZM23.3177 18.3727C23.7617 18.4393 23.9875 18.653 24.5922 18.6341C25.1636 18.6162 25.2022 18.3618 25.8536 18.4049C26.3066 18.435 26.8038 18.4501 27.1942 18.2623C27.5968 18.0688 27.9688 18.2356 28.4037 18.3387C28.3978 18.557 28.3655 19.204 28.133 19.204H23.5838C23.3563 19.204 23.3316 18.5945 23.3177 18.3727ZM26.2941 18.0229C26.126 18.0001 27.0168 17.6987 27.5972 17.4502C27.7778 17.3728 28.1469 17.2834 28.0297 17.064C27.9201 16.859 27.6431 16.7178 27.4364 16.6189C26.6337 16.2355 25.2993 16.1837 24.46 16.4353C23.6239 16.6862 23.2766 17.0181 22.8253 17.1292C22.295 17.2599 21.6116 17.5701 21.1725 17.806C19.2396 18.8444 17.7006 20.4415 17.0263 23.0381C16.3262 25.7321 16.8693 28.6809 18.1522 30.6512C18.4999 31.185 18.7855 31.54 19.1655 31.9721C19.4978 32.3506 19.948 32.7183 20.3844 33.0845C21.2508 33.8128 22.3048 34.1786 23.659 34.5109C26.4597 35.1975 29.147 34.3861 31.0332 33.0824C32.9571 31.7527 34.3427 29.9443 34.8448 27.5184C35.1336 26.1246 35.0414 24.7262 34.6057 23.4428C34.192 22.2253 33.6558 21.3551 32.8736 20.4611L31.6418 19.362C30.6606 18.6271 29.6832 18.1336 28.4312 17.9206C27.5025 17.7625 27.11 17.9647 26.2941 18.0229Z" fill="#1464C0"/>
<path fill-rule="evenodd" clip-rule="evenodd" d="M46.7162 25.0853V24.7569C46.7162 24.711 46.7531 24.6738 46.7983 24.6738H47.1247C47.1793 24.6738 47.2294 24.6531 47.2684 24.6139L47.4987 24.3815C47.5308 24.3493 47.5833 24.3493 47.6153 24.3815L47.846 24.6139C47.8846 24.6531 47.9347 24.6738 47.9897 24.6738H48.3157C48.361 24.6738 48.3979 24.711 48.3979 24.7569V25.0853C48.3979 25.1406 48.4187 25.1907 48.4574 25.23L48.6881 25.4624C48.7201 25.4946 48.7201 25.5472 48.6881 25.5794L48.4574 25.8118C48.4187 25.8507 48.3979 25.9011 48.3979 25.9565V26.2849C48.3979 26.3305 48.361 26.368 48.3157 26.368H47.9897C47.9347 26.368 47.8846 26.3886 47.846 26.4279L47.6153 26.6599C47.5833 26.6925 47.5308 26.6925 47.4987 26.6599L47.2684 26.4279C47.2294 26.3886 47.1793 26.368 47.1247 26.368H46.7983C46.7531 26.368 46.7162 26.3305 46.7162 26.2849V25.9565C46.7162 25.9011 46.6953 25.8507 46.6567 25.8118L46.426 25.5794C46.394 25.5472 46.394 25.4946 46.426 25.4624L46.6567 25.23C46.6953 25.1907 46.7162 25.1406 46.7162 25.0853ZM47.1247 24.5631H46.6995C46.648 24.5631 46.6062 24.6055 46.6062 24.657V25.0853C46.6062 25.1112 46.5968 25.1333 46.5788 25.1515L46.2781 25.4543C46.2419 25.4911 46.2419 25.5507 46.2781 25.5871L46.5788 25.8899C46.5968 25.9085 46.6062 25.9306 46.6062 25.9565V26.3848C46.6062 26.4363 46.648 26.4787 46.6995 26.4787H47.1247C47.1501 26.4787 47.1724 26.4878 47.1905 26.506L47.4911 26.8088C47.5273 26.8456 47.5868 26.8456 47.623 26.8088L47.9236 26.506C47.9417 26.4878 47.964 26.4787 47.9897 26.4787H48.4146C48.4661 26.4787 48.5078 26.4363 48.5078 26.3848V25.9565C48.5078 25.9306 48.5172 25.9085 48.5353 25.8899L48.8359 25.5871C48.8721 25.5507 48.8721 25.4911 48.8359 25.4543L48.5353 25.1515C48.5172 25.1333 48.5078 25.1112 48.5078 25.0853V24.657C48.5078 24.6055 48.4661 24.5631 48.4146 24.5631H47.9897C47.964 24.5631 47.9417 24.5539 47.9236 24.5357L47.623 24.2329C47.5868 24.1961 47.5273 24.1961 47.4911 24.2329L47.1905 24.5357C47.1724 24.5539 47.1501 24.5631 47.1247 24.5631Z" fill="#1464C0"/>
<path fill-rule="evenodd" clip-rule="evenodd" d="M3.59819 24.884H3.91971C3.93328 24.884 3.94511 24.8791 3.95485 24.8693L4.18241 24.6405C4.20155 24.6208 4.23287 24.6208 4.25235 24.6405L4.47992 24.8693C4.48931 24.8791 4.50114 24.884 4.51471 24.884H4.83657C4.86371 24.884 4.88598 24.9065 4.88598 24.9338V25.258C4.88598 25.2716 4.89085 25.2836 4.90059 25.2934L5.12816 25.5222C5.1473 25.5418 5.1473 25.5734 5.12816 25.593L4.90059 25.8222C4.89085 25.8317 4.88598 25.8436 4.88598 25.8573V26.1814C4.88598 26.2088 4.86371 26.2312 4.83657 26.2312H4.51471C4.50114 26.2312 4.48931 26.2361 4.47992 26.2459L4.25235 26.4751C4.23287 26.4944 4.20155 26.4944 4.18241 26.4751L3.95485 26.2459C3.94511 26.2361 3.93328 26.2312 3.91971 26.2312H3.59819C3.57071 26.2312 3.54844 26.2088 3.54844 26.1814V25.8573C3.54844 25.8436 3.54356 25.8317 3.53417 25.8219L3.30661 25.593C3.28712 25.5734 3.28712 25.5418 3.30661 25.5222L3.53417 25.2934C3.54356 25.2836 3.54844 25.2716 3.54844 25.258V24.9338C3.54844 24.9065 3.57071 24.884 3.59819 24.884Z" fill="#1464C0"/>
<path fill-rule="evenodd" clip-rule="evenodd" d="M3.37649 25.0853V24.7569C3.37649 24.711 3.41372 24.6738 3.45896 24.6738H3.78499C3.83997 24.6738 3.89007 24.6531 3.9287 24.6139L4.15939 24.3815C4.1914 24.3493 4.2436 24.3493 4.27596 24.3815L4.50631 24.6139C4.54528 24.6531 4.59538 24.6738 4.65001 24.6738H4.97605C5.02163 24.6738 5.05851 24.711 5.05851 24.7569V25.0853C5.05851 25.1406 5.07939 25.1907 5.11801 25.23L5.34871 25.4624C5.38072 25.4946 5.38072 25.5472 5.34871 25.5794L5.11801 25.8118C5.07939 25.8507 5.05851 25.9011 5.05851 25.9565V26.2849C5.05851 26.3305 5.02163 26.368 4.97605 26.368H4.65001C4.59538 26.368 4.54528 26.3886 4.50631 26.4279L4.27596 26.6599C4.2436 26.6925 4.1914 26.6925 4.15939 26.6599L3.9287 26.4279C3.89007 26.3886 3.83997 26.368 3.78499 26.368H3.45896C3.41372 26.368 3.37649 26.3305 3.37649 26.2849V25.9565C3.37649 25.9011 3.35596 25.8507 3.31699 25.8118L3.08664 25.5794C3.05463 25.5472 3.05463 25.4946 3.08664 25.4624L3.31699 25.23C3.35596 25.1907 3.37649 25.1406 3.37649 25.0853ZM3.78499 24.5631H3.35979C3.30864 24.5631 3.26654 24.6055 3.26654 24.657V25.0853C3.26654 25.1112 3.25749 25.1333 3.2394 25.1515L2.93876 25.4543C2.90257 25.4911 2.90257 25.5507 2.93876 25.5871L3.2394 25.8899C3.25749 25.9085 3.26654 25.9306 3.26654 25.9565V26.3848C3.26654 26.4363 3.30864 26.4787 3.35979 26.4787H3.78499C3.81074 26.4787 3.83301 26.4878 3.8511 26.506L4.15174 26.8088C4.18793 26.8456 4.24708 26.8456 4.28361 26.8088L4.58425 26.506C4.60234 26.4878 4.62426 26.4787 4.65001 26.4787H5.07521C5.12671 26.4787 5.16847 26.4363 5.16847 26.3848V25.9565C5.16847 25.9306 5.17751 25.9085 5.19596 25.8899L5.49624 25.5871C5.53278 25.5507 5.53278 25.4911 5.49624 25.4543L5.19596 25.1515C5.17751 25.1333 5.16847 25.1112 5.16847 25.0853V24.657C5.16847 24.6055 5.12671 24.5631 5.07521 24.5631H4.65001C4.62426 24.5631 4.60234 24.5539 4.58425 24.5357L4.28361 24.2329C4.24708 24.1961 4.18793 24.1961 4.15174 24.2329L3.8511 24.5357C3.83301 24.5539 3.81074 24.5631 3.78499 24.5631Z" fill="#1464C0"/>
<path fill-rule="evenodd" clip-rule="evenodd" d="M49.0581 17.1002C50.4614 20.7563 50.7951 25.2745 50.2429 29.1415C50.119 30.0086 49.9423 30.8479 49.7318 31.6971C49.4471 32.8438 49.0522 34.0312 48.5898 35.1173L48.127 36.1743C47.7964 36.85 47.4523 37.5173 47.0657 38.1622C46.5866 38.9612 46.1082 39.6888 45.5521 40.4356L44.5382 41.7089C44.4192 41.8354 44.3162 41.9777 44.194 42.0979C44.0636 42.2261 43.9661 42.3702 43.843 42.4971L41.8652 44.391C40.965 45.121 40.0488 45.8314 39.0784 46.465C38.0429 47.1411 36.9694 47.7078 35.8424 48.2121C32.7129 49.6126 29.2855 50.3443 25.8613 50.3443C24.1027 50.3443 22.4116 50.1824 20.6958 49.7895C19.3921 49.4909 18.121 49.0763 16.8624 48.6256C16.345 48.4406 15.8168 48.1879 15.322 47.9482C14.8063 47.6983 14.2889 47.4369 13.7882 47.1582C13.6191 47.064 13.4587 46.956 13.2882 46.8624C13.1295 46.7755 12.9813 46.6739 12.8289 46.5772C12.5244 46.3844 12.2182 46.1941 11.9249 45.9845C10.7589 45.1504 9.61935 44.248 8.60714 43.2281C7.84025 42.456 7.09353 41.671 6.44633 40.792C5.36662 39.326 4.28657 37.7752 3.57186 36.0891C3.29593 35.4383 3.00365 34.79 2.74581 34.1322C2.41526 33.2879 2.17377 32.4356 1.95526 31.5555C1.68211 30.4547 1.47021 29.3592 1.35956 28.2293C1.24891 27.1018 1.23499 25.966 1.23499 24.834C1.23499 23.8926 1.32754 22.9418 1.46185 22.011C1.58434 21.1618 1.74857 20.3137 1.95526 19.4813C2.16507 18.6374 2.40238 17.8173 2.70824 17.0035C2.96642 16.317 3.26044 15.6416 3.54646 14.9663C3.7615 14.4595 4.05413 13.9341 4.32241 13.4533C4.58476 12.9819 4.86104 12.4965 5.15959 12.0476L5.77965 11.1332C5.8809 10.9843 5.9839 10.8371 6.09037 10.692L6.76158 9.83299C6.86666 9.70157 6.98323 9.57435 7.09075 9.43662L7.64713 8.80823L7.65618 8.79667C7.86043 8.53908 8.09912 8.2927 8.33052 8.06069C8.63463 7.75614 8.94918 7.46104 9.26826 7.17226C9.81072 6.68091 10.3817 6.185 10.9652 5.74412C11.1159 5.63021 11.2673 5.51666 11.4176 5.40241C11.5585 5.29517 11.7106 5.203 11.8529 5.09646C12.2193 4.82239 12.6351 4.5655 13.0241 4.32508C13.3975 4.09483 13.7959 3.8488 14.1884 3.65464C14.3554 3.57193 14.5085 3.47065 14.6734 3.38759C17.9606 1.73304 21.5355 0.793093 25.2102 0.69286H26.5199C28.6275 0.749635 30.7163 1.08258 32.7414 1.67171C34.9701 2.32007 37.0188 3.26002 38.981 4.50382C40.5273 5.48407 41.8669 6.55159 43.1592 7.85287C43.9244 8.62389 44.6537 9.4198 45.32 10.2798C45.9864 11.1399 46.5769 12.0469 47.1374 12.9798C47.4335 13.4722 47.7035 13.9976 47.9575 14.5131C48.1952 14.9953 48.4308 15.4934 48.6274 15.9938C48.6994 16.1778 48.7815 16.3583 48.848 16.5444C48.9144 16.7309 48.9871 16.9152 49.0581 17.1002ZM26.5272 0.146484H25.2029C21.4975 0.246367 17.8461 1.18036 14.4309 2.89869C14.2419 2.99401 14.1449 3.06761 13.9493 3.16434C13.3588 3.45663 12.0119 4.29704 11.5296 4.65802C11.3786 4.77087 11.2419 4.85148 11.0909 4.96643C10.9329 5.08664 10.7982 5.18758 10.6399 5.30744C9.71016 6.00942 7.91262 7.59773 7.23237 8.45567L6.67459 9.08615C6.54967 9.24772 6.46373 9.33463 6.33533 9.49514L5.6596 10.3604C5.54095 10.5213 5.44248 10.6618 5.33183 10.8252L4.70899 11.7437C4.24655 12.4398 3.34813 14.0435 3.04784 14.7518C2.30739 16.4995 1.92603 17.3487 1.42915 19.3488C1.22733 20.1619 1.05266 21.0486 0.924958 21.9325C0.795866 22.8293 0.692871 23.8439 0.692871 24.834C0.692871 27.4866 0.786123 29.0984 1.42915 31.688C1.97648 33.8924 2.30426 34.4893 3.07324 36.3036C3.8043 38.0286 4.91498 39.6292 6.01069 41.1176C6.67946 42.0253 7.42827 42.8135 8.22335 43.6143C9.25364 44.6517 10.4252 45.5819 11.611 46.4296C11.9141 46.6466 12.2144 46.8334 12.5401 47.0394C12.7113 47.1481 12.8435 47.2406 13.029 47.3422C13.2203 47.447 13.3411 47.5336 13.5259 47.6363C14.2872 48.06 15.8485 48.8422 16.6808 49.1405C19.8072 50.2599 22.271 50.8903 25.8613 50.8903C29.8165 50.8903 33.3079 49.9441 36.0626 48.7112C38.5669 47.5904 40.1351 46.4962 42.2225 44.8024L44.2229 42.8868C44.3632 42.7441 44.4223 42.6369 44.573 42.4883C44.7236 42.34 44.796 42.2244 44.946 42.0691L45.9808 40.7707C46.6297 39.8991 46.9662 39.3849 47.5299 38.4446C47.929 37.7791 48.2721 37.1136 48.6187 36.4053L49.0881 35.3325C49.5411 34.2688 49.974 32.9728 50.2579 31.8296C50.4736 30.9601 50.6431 30.175 50.7795 29.2193C51.347 25.2447 50.9931 20.6263 49.5641 16.9033C49.4896 16.7095 49.4245 16.5458 49.3584 16.3597C49.2867 16.1589 49.2147 16.0047 49.1315 15.793C48.7839 14.9074 48.0609 13.4617 47.6012 12.697C46.3232 10.5697 45.2891 9.22564 43.5427 7.46665C42.2006 6.11491 40.886 5.06597 39.2698 4.04156C37.2596 2.76726 35.1879 1.8147 32.8921 1.14706C30.7824 0.533047 28.6494 0.20326 26.5272 0.146484Z" fill="#1464C0"/>
<path fill-rule="evenodd" clip-rule="evenodd" d="M50.3236 25.2755C50.3236 18.5399 47.2978 11.7773 42.3154 7.28961L42.3092 7.28365L40.6758 5.90422L40.6706 5.90001C40.3801 5.66695 40.0746 5.45247 39.7659 5.24464C39.1518 4.83109 38.545 4.41614 37.895 4.05972C37.2446 3.70259 36.5894 3.36229 35.9179 3.04652C29.7831 0.162545 21.9001 0.156587 15.7712 3.06054C14.7834 3.52841 13.8091 4.07023 12.88 4.64675C11.9444 5.22712 10.9743 5.88705 10.1573 6.62933L9.76269 6.97419C9.35315 7.33271 8.95787 7.68038 8.5873 8.08201C8.21568 8.48434 7.82492 8.83972 7.47836 9.27114C7.25184 9.55326 7.01627 9.82733 6.78453 10.1052C6.43205 10.5279 6.10532 10.9523 5.80434 11.4146C5.40106 12.0339 4.98734 12.6374 4.62686 13.2843C2.54086 17.0269 1.40234 21.058 1.40234 25.3638C1.40234 28.784 2.10591 32.6693 3.60526 35.7386C4.25837 37.076 4.93236 38.4064 5.80434 39.6151C6.12168 40.0546 6.45363 40.4895 6.78593 40.9175C6.98148 41.1687 7.17947 41.419 7.38302 41.6639C7.53229 41.843 7.69757 42.0428 7.86981 42.1991C8.11164 42.4188 8.32007 42.6905 8.54937 42.9256L8.55876 42.9351L9.72233 44.0184C10.0372 44.3366 10.4297 44.6429 10.7822 44.918C11.1298 45.19 11.4875 45.4612 11.8508 45.7115C16.2222 48.7255 20.8089 50.1487 26.1243 50.1487C31.8837 50.1487 37.4492 47.9366 41.8213 44.1943L41.83 44.1869L43.1669 42.9417L43.1745 42.934C43.559 42.5464 43.9272 42.1325 44.2835 41.7183C44.6328 41.3121 44.9787 40.895 45.3012 40.4668C48.6712 35.9962 50.3236 30.8969 50.3236 25.2755ZM41.9539 7.69685C46.6576 11.9333 49.7815 18.4793 49.7815 25.2755C49.7815 30.9432 48.0724 35.8872 44.8694 40.1366C44.3336 40.8477 43.409 41.9247 42.7907 42.5482L41.4702 43.7783C37.2499 47.3905 31.8207 49.6023 26.1243 49.6023C20.7428 49.6023 16.2987 48.1164 12.157 45.2608C11.6493 44.911 10.5136 44.0464 10.0988 43.6248L8.9363 42.5429C8.69725 42.2979 8.47908 42.0172 8.23308 41.7936C7.82214 41.42 6.53157 39.694 6.24311 39.2941C5.41881 38.1516 4.78274 36.9127 4.0917 35.4975C2.71901 32.6868 1.94481 28.9098 1.94481 25.3638C1.94481 20.9844 3.14387 17.0613 5.09973 13.5514C5.47065 12.8858 5.85027 12.3402 6.25773 11.7142C6.82316 10.8454 7.31308 10.345 7.90008 9.61459C8.26683 9.15794 8.65724 8.80817 8.98432 8.45385C9.36916 8.0368 9.71015 7.74661 10.1183 7.38669L10.5167 7.03832C11.9085 5.77279 14.3133 4.35481 16.0019 3.5547C21.9857 0.719434 29.7006 0.726443 35.6886 3.54173C36.3848 3.86872 36.9868 4.18308 37.6354 4.53916C38.292 4.89943 38.8793 5.30457 39.4646 5.69885C39.7677 5.90282 40.0641 6.11204 40.3328 6.32723L41.9539 7.69685Z" fill="#1464C0"/>
</svg>
