<svg width="48" height="56" viewBox="0 0 48 56" fill="none" xmlns="http://www.w3.org/2000/svg">
<path d="M0 0H40C44.4183 0 48 3.58172 48 8V48C48 52.4183 44.4183 56 40 56H0V0Z" fill="#DDEBFB"/>
<path d="M30.125 28C30.125 28.1658 30.0592 28.3247 29.9419 28.4419C29.8247 28.5592 29.6658 28.625 29.5 28.625H23.875V33.625C23.8754 33.7484 23.8392 33.8691 23.7711 33.972C23.703 34.0749 23.6059 34.1553 23.4922 34.2031C23.4151 34.2337 23.3329 34.2496 23.25 34.25C23.084 34.2493 22.9247 34.185 22.8047 34.0703L17.1797 28.4453C17.0623 28.3268 16.9965 28.1668 16.9965 28C16.9965 27.8332 17.0623 27.6732 17.1797 27.5547L22.8047 21.9297C22.8951 21.8449 23.0076 21.7874 23.1292 21.7639C23.2509 21.7404 23.3767 21.7518 23.4922 21.7969C23.6059 21.8447 23.703 21.9251 23.7711 22.028C23.8392 22.1309 23.8754 22.2516 23.875 22.375V27.375H29.5C29.6658 27.375 29.8247 27.4408 29.9419 27.5581C30.0592 27.6753 30.125 27.8342 30.125 28ZM15.125 20.5C14.9592 20.5 14.8003 20.5658 14.6831 20.6831C14.5658 20.8003 14.5 20.9592 14.5 21.125V34.875C14.5 35.0408 14.5658 35.1997 14.6831 35.3169C14.8003 35.4342 14.9592 35.5 15.125 35.5C15.2908 35.5 15.4497 35.4342 15.5669 35.3169C15.6842 35.1997 15.75 35.0408 15.75 34.875V21.125C15.75 20.9592 15.6842 20.8003 15.5669 20.6831C15.4497 20.5658 15.2908 20.5 15.125 20.5Z" fill="#1464C0"/>
</svg>
