<svg width="40" height="40" viewBox="0 0 40 40" fill="none" xmlns="http://www.w3.org/2000/svg">
<rect width="40" height="40" rx="12" fill="#1464C0"/>
<path fill-rule="evenodd" clip-rule="evenodd" d="M19.9993 13.334C20.4596 13.334 20.8327 13.7071 20.8327 14.1673V25.834C20.8327 26.2942 20.4596 26.6673 19.9993 26.6673C19.5391 26.6673 19.166 26.2942 19.166 25.834V14.1673C19.166 13.7071 19.5391 13.334 19.9993 13.334Z" fill="white"/>
<path fill-rule="evenodd" clip-rule="evenodd" d="M13.334 19.9993C13.334 19.5391 13.7071 19.166 14.1673 19.166H25.834C26.2942 19.166 26.6673 19.5391 26.6673 19.9993C26.6673 20.4596 26.2942 20.8327 25.834 20.8327H14.1673C13.7071 20.8327 13.334 20.4596 13.334 19.9993Z" fill="white"/>
</svg>
