<svg width="44" height="40" viewBox="0 0 44 40" fill="none" xmlns="http://www.w3.org/2000/svg">
<path d="M12.2095 15.8766H2.45947C2.0285 15.8766 1.61517 15.7054 1.31042 15.4006C1.00568 15.0959 0.834473 14.6825 0.834473 14.2516V4.50156C0.840379 4.17966 0.93945 3.86637 1.1197 3.5996C1.29995 3.33284 1.55365 3.12402 1.8501 2.99844C2.14782 2.87791 2.47458 2.84832 2.78911 2.91339C3.10364 2.97847 3.39183 3.13529 3.61729 3.36406L7.33447 7.08125L8.20791 6.20781C11.8704 2.55858 16.8299 0.509571 22.0001 0.509571C27.1703 0.509571 32.1298 2.55858 35.7923 6.20781C36.0962 6.51244 36.2668 6.92517 36.2668 7.35547C36.2668 7.78576 36.0962 8.19849 35.7923 8.50313C35.6428 8.65606 35.4643 8.77758 35.2672 8.86054C35.0701 8.94351 34.8585 8.98625 34.6446 8.98625C34.4308 8.98625 34.2191 8.94351 34.022 8.86054C33.8249 8.77758 33.6464 8.65606 33.497 8.50313C30.4437 5.46168 26.3097 3.754 22.0001 3.754C17.6905 3.754 13.5565 5.46168 10.5032 8.50313L9.62978 9.37656L13.3673 13.1141C13.5911 13.3424 13.7426 13.6318 13.8028 13.9458C13.863 14.2599 13.8291 14.5848 13.7055 14.8797C13.5819 15.1746 13.374 15.4265 13.1079 15.6038C12.8418 15.7812 12.5293 15.876 12.2095 15.8766ZM41.5407 24.1234H31.7907C31.4709 24.124 31.1584 24.2188 30.8923 24.3962C30.6262 24.5735 30.4183 24.8254 30.2947 25.1203C30.1711 25.4152 30.1372 25.7401 30.1974 26.0542C30.2576 26.3682 30.4091 26.6576 30.6329 26.8859L34.3704 30.6234L33.497 31.4969C30.4437 34.5383 26.3097 36.246 22.0001 36.246C17.6905 36.246 13.5565 34.5383 10.5032 31.4969C10.3538 31.3439 10.1753 31.2224 9.97817 31.1395C9.78108 31.0565 9.5694 31.0138 9.35557 31.0138C9.14173 31.0138 8.93005 31.0565 8.73297 31.1395C8.53588 31.2224 8.35737 31.3439 8.20791 31.4969C7.90401 31.8015 7.73335 32.2142 7.73335 32.6445C7.73335 33.0748 7.90401 33.4876 8.20791 33.7922C11.8678 37.4464 16.8283 39.4988 22.0001 39.4988C27.1719 39.4988 32.1324 37.4464 35.7923 33.7922L36.6657 32.9188L40.3829 36.6359C40.5325 36.7918 40.7123 36.9155 40.9114 36.9993C41.1105 37.0832 41.3247 37.1254 41.5407 37.1234C41.7498 37.1224 41.9567 37.081 42.1501 37.0016C42.4465 36.876 42.7002 36.6672 42.8805 36.4004C43.0607 36.1336 43.1598 35.8203 43.1657 35.4984V25.7484C43.1657 25.535 43.1237 25.3237 43.042 25.1266C42.9604 24.9294 42.8407 24.7503 42.6898 24.5994C42.5389 24.4485 42.3597 24.3288 42.1626 24.2471C41.9654 24.1655 41.7541 24.1234 41.5407 24.1234Z" fill="#888888"/>
</svg>
