<svg width="24" height="18" viewBox="0 0 24 18" fill="none" xmlns="http://www.w3.org/2000/svg">
<path d="M21 3.7501H20.9062C20.8301 3.54769 20.7111 3.36414 20.5574 3.21203C20.4036 3.05992 20.2188 2.94285 20.0156 2.86885L12.5156 0.140725C12.1827 0.018847 11.8173 0.018847 11.4844 0.140725L3.98438 2.86885C3.78117 2.94285 3.59637 3.05992 3.44265 3.21203C3.28892 3.36414 3.1699 3.54769 3.09375 3.7501H3C2.20511 3.75257 1.44349 4.06944 0.881411 4.63151C0.319337 5.19358 0.00247246 5.95521 0 6.7501L0 9.0001C0.00247246 9.79499 0.319337 10.5566 0.881411 11.1187C1.44349 11.6808 2.20511 11.9976 3 12.0001H3.4875C4.10625 13.3501 5.29688 14.5313 7.0125 15.4876C8.99063 16.5845 11.1 17.0813 11.6906 17.2032L12 17.2313L12.3094 17.2032C12.9 17.0813 15.0094 16.5845 16.9875 15.4876C18.7031 14.5313 19.8937 13.3501 20.5125 12.0001H21C21.7949 11.9976 22.5565 11.6808 23.1186 11.1187C23.6807 10.5566 23.9975 9.79499 24 9.0001V6.7501C23.9975 5.95521 23.6807 5.19358 23.1186 4.63151C22.5565 4.06944 21.7949 3.75257 21 3.7501ZM3 10.5001C2.60218 10.5001 2.22064 10.3421 1.93934 10.0608C1.65804 9.77946 1.5 9.39792 1.5 9.0001V6.7501C1.5 6.35228 1.65804 5.97074 1.93934 5.68944C2.22064 5.40814 2.60218 5.2501 3 5.2501V9.7501C2.99974 10.0012 3.01854 10.2519 3.05625 10.5001H3ZM15.75 11.2501H8.25C8.05109 11.2501 7.86032 11.1711 7.71967 11.0304C7.57902 10.8898 7.5 10.699 7.5 10.5001C7.5 10.3012 7.57902 10.1104 7.71967 9.96977C7.86032 9.82912 8.05109 9.7501 8.25 9.7501H15.75C15.9489 9.7501 16.1397 9.82912 16.2803 9.96977C16.421 10.1104 16.5 10.3012 16.5 10.5001C16.5 10.699 16.421 10.8898 16.2803 11.0304C16.1397 11.1711 15.9489 11.2501 15.75 11.2501ZM15.75 8.2501H8.25C8.05109 8.2501 7.86032 8.17108 7.71967 8.03043C7.57902 7.88978 7.5 7.69901 7.5 7.5001C7.5 7.30119 7.57902 7.11042 7.71967 6.96977C7.86032 6.82912 8.05109 6.7501 8.25 6.7501H15.75C15.9489 6.7501 16.1397 6.82912 16.2803 6.96977C16.421 7.11042 16.5 7.30119 16.5 7.5001C16.5 7.69901 16.421 7.88978 16.2803 8.03043C16.1397 8.17108 15.9489 8.2501 15.75 8.2501ZM22.5 9.0001C22.5 9.39792 22.342 9.77946 22.0607 10.0608C21.7794 10.3421 21.3978 10.5001 21 10.5001H20.9437C20.9815 10.2519 21.0003 10.0012 21 9.7501V5.2501C21.3978 5.2501 21.7794 5.40814 22.0607 5.68944C22.342 5.97074 22.5 6.35228 22.5 6.7501V9.0001Z" fill="#1464C0"/>
</svg>
