<svg width="20" height="22" viewBox="0 0 20 22" fill="none" xmlns="http://www.w3.org/2000/svg">
<path d="M19.5531 5.63758C19.5506 5.63758 19.5483 5.63659 19.5465 5.63484C19.5447 5.63308 19.5438 5.63069 19.5438 5.62821C19.4083 5.3975 19.2142 5.20669 18.9813 5.07508L10.7313 0.434456C10.5077 0.309658 10.256 0.244141 10 0.244141C9.74401 0.244141 9.49227 0.309658 9.26876 0.434456L1.01876 5.07508C0.785808 5.20669 0.591762 5.3975 0.456257 5.62821C0.456257 5.63069 0.455269 5.63308 0.453511 5.63484C0.451753 5.63659 0.449368 5.63758 0.446882 5.63758V5.65633C0.31727 5.87476 0.249236 6.12422 0.250006 6.37821V15.622C0.25048 15.8892 0.321899 16.1515 0.456964 16.3821C0.59203 16.6127 0.785898 16.8033 1.01876 16.9345L9.26876 21.5751C9.47646 21.6884 9.70738 21.7525 9.94376 21.7626H10.075C10.3054 21.7524 10.5302 21.6881 10.7313 21.5751L18.9813 16.9345C19.2141 16.8033 19.408 16.6127 19.543 16.3821C19.6781 16.1515 19.7495 15.8892 19.75 15.622V6.37821C19.7514 6.11822 19.6834 5.86257 19.5531 5.63758ZM10 1.73758L17.4719 5.93758L14.6031 7.56883L7.03751 3.39696L10 1.73758ZM10.0844 10.1376L2.53751 5.93758L5.50001 4.26883L13.075 8.44071L10.0844 10.1376ZM10.7594 19.8407L10.8344 11.4407L13.8438 9.72508V13.297C13.8438 13.4959 13.9228 13.6866 14.0634 13.8273C14.2041 13.9679 14.3948 14.047 14.5938 14.047C14.7927 14.047 14.9834 13.9679 15.1241 13.8273C15.2647 13.6866 15.3438 13.4959 15.3438 13.297V8.87196L18.25 7.22196V15.622L10.7594 19.8407Z" fill="#1464C0"/>
</svg>
