<svg width="20" height="21" viewBox="0 0 20 21" fill="none" xmlns="http://www.w3.org/2000/svg">
<path d="M18.25 2.75H10.75V1.25C10.75 1.05109 10.671 0.860322 10.5303 0.71967C10.3897 0.579018 10.1989 0.5 10 0.5C9.80109 0.5 9.61032 0.579018 9.46967 0.71967C9.32902 0.860322 9.25 1.05109 9.25 1.25V2.75H1.75C1.35218 2.75 0.970644 2.90804 0.68934 3.18934C0.408035 3.47064 0.25 3.85218 0.25 4.25V15.5C0.25 15.8978 0.408035 16.2794 0.68934 16.5607C0.970644 16.842 1.35218 17 1.75 17H5.44375L3.41875 19.5312C3.33066 19.6413 3.27535 19.7739 3.25917 19.9139C3.24299 20.0539 3.26658 20.1957 3.32726 20.3229C3.38793 20.4501 3.48322 20.5576 3.60221 20.6332C3.72119 20.7087 3.85906 20.7492 4 20.75C4.11195 20.7507 4.22258 20.7258 4.32335 20.677C4.42413 20.6282 4.51236 20.557 4.58125 20.4688L7.35625 17H12.6437L15.4188 20.4688C15.4876 20.557 15.5759 20.6282 15.6767 20.677C15.7774 20.7258 15.8881 20.7507 16 20.75C16.1409 20.7492 16.2788 20.7087 16.3978 20.6332C16.5168 20.5576 16.6121 20.4501 16.6727 20.3229C16.7334 20.1957 16.757 20.0539 16.7408 19.9139C16.7246 19.7739 16.6693 19.6413 16.5812 19.5312L14.5563 17H18.25C18.6478 17 19.0294 16.842 19.3107 16.5607C19.592 16.2794 19.75 15.8978 19.75 15.5V4.25C19.75 3.85218 19.592 3.47064 19.3107 3.18934C19.0294 2.90804 18.6478 2.75 18.25 2.75ZM7.75 12.5C7.75 12.6989 7.67098 12.8897 7.53033 13.0303C7.38968 13.171 7.19891 13.25 7 13.25C6.80109 13.25 6.61032 13.171 6.46967 13.0303C6.32902 12.8897 6.25 12.6989 6.25 12.5V10.25C6.25 10.0511 6.32902 9.86032 6.46967 9.71967C6.61032 9.57902 6.80109 9.5 7 9.5C7.19891 9.5 7.38968 9.57902 7.53033 9.71967C7.67098 9.86032 7.75 10.0511 7.75 10.25V12.5ZM10.75 12.5C10.75 12.6989 10.671 12.8897 10.5303 13.0303C10.3897 13.171 10.1989 13.25 10 13.25C9.80109 13.25 9.61032 13.171 9.46967 13.0303C9.32902 12.8897 9.25 12.6989 9.25 12.5V8.75C9.25 8.55109 9.32902 8.36032 9.46967 8.21967C9.61032 8.07902 9.80109 8 10 8C10.1989 8 10.3897 8.07902 10.5303 8.21967C10.671 8.36032 10.75 8.55109 10.75 8.75V12.5ZM13.75 12.5C13.75 12.6989 13.671 12.8897 13.5303 13.0303C13.3897 13.171 13.1989 13.25 13 13.25C12.8011 13.25 12.6103 13.171 12.4697 13.0303C12.329 12.8897 12.25 12.6989 12.25 12.5V7.25C12.25 7.05109 12.329 6.86032 12.4697 6.71967C12.6103 6.57902 12.8011 6.5 13 6.5C13.1989 6.5 13.3897 6.57902 13.5303 6.71967C13.671 6.86032 13.75 7.05109 13.75 7.25V12.5Z" fill="#1464C0"/>
</svg>
