<svg width="24" height="25" viewBox="0 0 24 25" fill="none" xmlns="http://www.w3.org/2000/svg">
<path d="M12.5812 3.0901C12.515 3.08488 12.4485 3.09784 12.389 3.12757C12.3296 3.15731 12.2793 3.2027 12.2437 3.25885C11.2781 4.72135 11.25 6.06198 11.25 6.07135C11.2484 6.18381 11.2725 6.29514 11.3204 6.39689C11.3683 6.49865 11.4388 6.58816 11.5264 6.65864C11.6141 6.72912 11.7166 6.77871 11.8263 6.80365C11.9359 6.8286 12.0499 6.82824 12.1594 6.8026C12.5062 6.73698 12.7406 6.40885 12.75 6.0526C12.7534 5.9495 12.7778 5.84817 12.8217 5.75481C12.8656 5.66144 12.928 5.578 13.0052 5.50957C13.0824 5.44114 13.1728 5.38916 13.2707 5.3568C13.3687 5.32444 13.4722 5.31238 13.575 5.32135C13.7638 5.34452 13.9374 5.4369 14.0621 5.58064C14.1868 5.72437 14.2537 5.90924 14.25 6.09948C14.2481 6.39495 14.1881 6.68717 14.0733 6.95944C13.9586 7.23172 13.7913 7.47872 13.581 7.68635C13.3708 7.89397 13.1217 8.05816 12.848 8.16952C12.5743 8.28089 12.2814 8.33726 11.9859 8.33541C11.6904 8.33357 11.3982 8.27354 11.126 8.15876C10.8537 8.04398 10.6067 7.8767 10.3991 7.66646C9.97973 7.24187 9.74625 6.66809 9.74998 6.07135C9.74998 6.0151 9.75936 5.05885 10.2562 3.82135C10.282 3.7578 10.2898 3.68841 10.2788 3.62073C10.2679 3.55305 10.2386 3.48967 10.1941 3.43748C10.1496 3.38529 10.0917 3.34628 10.0266 3.32471C9.96157 3.30313 9.89182 3.29981 9.82498 3.3151C7.61587 3.82325 5.65254 5.08454 4.27202 6.88247C2.8915 8.6804 2.17989 10.9028 2.25936 13.1682C2.43748 18.3339 6.67498 22.487 11.8406 22.5714C14.3892 22.6124 16.8524 21.6538 18.7029 19.9008C20.5533 18.1479 21.6437 15.7401 21.7405 13.193C21.8373 10.646 20.9329 8.16228 19.2209 6.27392C17.5089 4.38556 15.1255 3.24269 12.5812 3.0901ZM7.49998 12.8214C7.49998 12.5988 7.56596 12.3813 7.68958 12.1963C7.8132 12.0113 7.9889 11.8671 8.19447 11.782C8.40003 11.6968 8.62623 11.6746 8.84446 11.718C9.06269 11.7614 9.26315 11.8685 9.42048 12.0259C9.57781 12.1832 9.68496 12.3836 9.72837 12.6019C9.77178 12.8201 9.7495 13.0463 9.66435 13.2519C9.5792 13.4574 9.43501 13.6331 9.25 13.7568C9.065 13.8804 8.84749 13.9464 8.62498 13.9464C8.32662 13.9464 8.04047 13.8278 7.82949 13.6168C7.61851 13.4059 7.49998 13.1197 7.49998 12.8214ZM14.9062 17.1995C14.0437 17.7684 13.0332 18.0717 12 18.0717C10.9667 18.0717 9.95623 17.7684 9.09373 17.1995C8.93034 17.0873 8.8173 16.9156 8.77876 16.7212C8.74022 16.5267 8.77924 16.3249 8.88748 16.1589C8.94152 16.0762 9.01135 16.0051 9.09295 15.9495C9.17455 15.8939 9.26633 15.855 9.36302 15.8349C9.4597 15.8149 9.55939 15.8141 9.65636 15.8327C9.75333 15.8513 9.84568 15.8889 9.92811 15.9432C10.5415 16.3528 11.2625 16.5713 12 16.5713C12.7375 16.5713 13.4585 16.3528 14.0719 15.9432C14.1543 15.8889 14.2466 15.8513 14.3436 15.8327C14.4406 15.8141 14.5403 15.8149 14.637 15.8349C14.7336 15.855 14.8254 15.8939 14.907 15.9495C14.9886 16.0051 15.0584 16.0762 15.1125 16.1589C15.2207 16.3249 15.2597 16.5267 15.2212 16.7212C15.1827 16.9156 15.0696 17.0873 14.9062 17.1995ZM15.375 13.9464C15.1525 13.9464 14.935 13.8804 14.75 13.7568C14.565 13.6331 14.4208 13.4574 14.3356 13.2519C14.2505 13.0463 14.2282 12.8201 14.2716 12.6019C14.315 12.3836 14.4222 12.1832 14.5795 12.0259C14.7368 11.8685 14.9373 11.7614 15.1555 11.718C15.3737 11.6746 15.5999 11.6968 15.8055 11.782C16.0111 11.8671 16.1868 12.0113 16.3104 12.1963C16.434 12.3813 16.5 12.5988 16.5 12.8214C16.5 13.1197 16.3815 13.4059 16.1705 13.6168C15.9595 13.8278 15.6734 13.9464 15.375 13.9464Z" fill="#1464C0"/>
</svg>
