<svg width="16" height="18" viewBox="0 0 16 18" fill="none" xmlns="http://www.w3.org/2000/svg">
<path d="M15.2499 12.7422C14.789 11.9453 14.2343 10.4297 14.2343 7.75V7.19531C14.2343 3.73438 11.4608 0.898438 8.04677 0.875H7.9999C7.18016 0.876025 6.36865 1.0385 5.61171 1.35315C4.85477 1.66779 4.16721 2.12845 3.58829 2.70882C3.00938 3.28918 2.55044 3.97789 2.23769 4.73562C1.92494 5.49335 1.7645 6.30526 1.76552 7.125V7.75C1.76552 10.4297 1.21084 11.9453 0.749897 12.7422C0.638422 12.9321 0.579087 13.1481 0.577899 13.3683C0.576711 13.5885 0.633711 13.8051 0.743131 13.9961C0.852552 14.1872 1.01051 14.346 1.20102 14.4565C1.39152 14.5669 1.60782 14.625 1.82802 14.625H4.8749C4.8749 15.4538 5.20414 16.2487 5.79019 16.8347C6.37624 17.4208 7.1711 17.75 7.9999 17.75C8.8287 17.75 9.62356 17.4208 10.2096 16.8347C10.7957 16.2487 11.1249 15.4538 11.1249 14.625H14.1718C14.3919 14.6264 14.6085 14.5693 14.7993 14.4594C14.9901 14.3496 15.1483 14.1911 15.2577 14C15.3662 13.8079 15.4225 13.5907 15.4211 13.3701C15.4198 13.1494 15.3607 12.933 15.2499 12.7422ZM7.9999 16.5C7.50325 16.4979 7.02753 16.2997 6.67634 15.9486C6.32516 15.5974 6.12695 15.1216 6.1249 14.625H9.8749C9.87284 15.1216 9.67464 15.5974 9.32345 15.9486C8.97227 16.2997 8.49654 16.4979 7.9999 16.5Z" fill="#4D4D4D"/>
</svg>
