<svg width="15" height="17" viewBox="0 0 15 17" fill="none" xmlns="http://www.w3.org/2000/svg">
<path d="M13.75 1.5H11.875V0.875C11.875 0.70924 11.8092 0.550268 11.6919 0.433058C11.5747 0.315848 11.4158 0.25 11.25 0.25C11.0842 0.25 10.9253 0.315848 10.8081 0.433058C10.6908 0.550268 10.625 0.70924 10.625 0.875V1.5H4.375V0.875C4.375 0.70924 4.30915 0.550268 4.19194 0.433058C4.07473 0.315848 3.91576 0.25 3.75 0.25C3.58424 0.25 3.42527 0.315848 3.30806 0.433058C3.19085 0.550268 3.125 0.70924 3.125 0.875V1.5H1.25C0.918479 1.5 0.600537 1.6317 0.366116 1.86612C0.131696 2.10054 0 2.41848 0 2.75V15.25C0 15.5815 0.131696 15.8995 0.366116 16.1339C0.600537 16.3683 0.918479 16.5 1.25 16.5H13.75C14.0815 16.5 14.3995 16.3683 14.6339 16.1339C14.8683 15.8995 15 15.5815 15 15.25V2.75C15 2.41848 14.8683 2.10054 14.6339 1.86612C14.3995 1.6317 14.0815 1.5 13.75 1.5ZM13.75 5.25H1.25V2.75H3.125V3.375C3.125 3.54076 3.19085 3.69973 3.30806 3.81694C3.42527 3.93415 3.58424 4 3.75 4C3.91576 4 4.07473 3.93415 4.19194 3.81694C4.30915 3.69973 4.375 3.54076 4.375 3.375V2.75H10.625V3.375C10.625 3.54076 10.6908 3.69973 10.8081 3.81694C10.9253 3.93415 11.0842 4 11.25 4C11.4158 4 11.5747 3.93415 11.6919 3.81694C11.8092 3.69973 11.875 3.54076 11.875 3.375V2.75H13.75V5.25Z" fill="#1464C0"/>
</svg>
