<svg width="17" height="17" viewBox="0 0 17 17" fill="none" xmlns="http://www.w3.org/2000/svg">
<path d="M15.3438 11.3749L11.6797 9.81244C11.4906 9.72771 11.2831 9.69257 11.0767 9.71034C10.8703 9.72811 10.6718 9.79821 10.5 9.91401L8.53906 11.2187C7.34394 10.6382 6.37631 9.67611 5.78906 8.48432L7.08594 6.49994C7.20097 6.32797 7.27123 6.12999 7.29033 5.92398C7.30943 5.71797 7.27677 5.51045 7.19531 5.32026L5.625 1.6562C5.51542 1.40878 5.32989 1.20271 5.09529 1.06785C4.8607 0.932999 4.58925 0.876376 4.32031 0.906195C3.26531 1.0444 2.29638 1.56102 1.59369 2.35999C0.890995 3.15896 0.502346 4.18593 0.5 5.24995C0.5 11.4531 5.54688 16.4999 11.75 16.4999C12.814 16.4976 13.841 16.109 14.64 15.4063C15.4389 14.7036 15.9555 13.7346 16.0938 12.6796C16.1236 12.4107 16.0669 12.1392 15.9321 11.9046C15.7972 11.6701 15.5912 11.4845 15.3438 11.3749Z" fill="#1464C0"/>
<path d="M10.2969 2.7265C11.2482 2.98641 12.1154 3.48988 12.8127 4.18723C13.5101 4.88459 14.0135 5.75172 14.2734 6.70306C14.3079 6.83662 14.3856 6.95503 14.4944 7.03982C14.6033 7.12461 14.7371 7.17102 14.875 7.17181C14.9305 7.1717 14.9857 7.16382 15.0391 7.14837C15.1185 7.12758 15.193 7.09115 15.2582 7.0412C15.3234 6.99125 15.378 6.9288 15.4187 6.8575C15.4595 6.78619 15.4856 6.70747 15.4955 6.62595C15.5054 6.54443 15.499 6.46175 15.4766 6.38275C15.1641 5.21766 14.5506 4.15529 13.6976 3.30233C12.8447 2.44937 11.7823 1.83585 10.6172 1.52337C10.5357 1.49367 10.4489 1.48127 10.3623 1.48696C10.2757 1.49265 10.1912 1.51631 10.1143 1.55642C10.0374 1.59654 9.96962 1.65223 9.91539 1.71996C9.86116 1.78769 9.82162 1.86597 9.7993 1.94982C9.77697 2.03367 9.77235 2.12124 9.78573 2.20697C9.79911 2.29271 9.83019 2.37471 9.877 2.44777C9.92381 2.52083 9.98531 2.58334 10.0576 2.63133C10.1299 2.67932 10.2114 2.71173 10.2969 2.7265Z" fill="#1464C0"/>
<path d="M9.64843 5.14057C10.1772 5.28532 10.6592 5.56533 11.0469 5.95302C11.4346 6.3407 11.7146 6.82269 11.8594 7.35151C11.8926 7.48574 11.97 7.60491 12.0791 7.68991C12.1882 7.77491 12.3226 7.82082 12.4609 7.82026C12.5139 7.82078 12.5667 7.81286 12.6172 7.79682C12.6973 7.77689 12.7727 7.74107 12.8387 7.69149C12.9048 7.64191 12.9602 7.57958 13.0017 7.50818C13.0433 7.43678 13.07 7.35778 13.0805 7.27585C13.0909 7.19391 13.0848 7.11072 13.0625 7.0312C12.8652 6.28862 12.4751 5.61139 11.9318 5.06809C11.3885 4.5248 10.7113 4.13475 9.96874 3.93744C9.88721 3.90774 9.80039 3.89534 9.71381 3.90103C9.62723 3.90672 9.54278 3.93038 9.46585 3.97049C9.38891 4.01061 9.32116 4.06631 9.26693 4.13404C9.2127 4.20177 9.17316 4.28005 9.15084 4.36389C9.12851 4.44774 9.12389 4.53532 9.13727 4.62105C9.15065 4.70678 9.18173 4.78878 9.22854 4.86184C9.27534 4.9349 9.33685 4.99742 9.40914 5.04541C9.48143 5.09339 9.56292 5.1258 9.64843 5.14057Z" fill="#1464C0"/>
</svg>
