<svg width="14" height="21" viewBox="0 0 14 21" fill="none" xmlns="http://www.w3.org/2000/svg">
<path d="M14 20.0522C14 20.2562 13.9262 20.4518 13.7949 20.596C13.6636 20.7403 13.4856 20.8213 13.2999 20.8213C10.8874 20.8162 8.57514 19.7612 6.86929 17.8874C5.16343 16.0135 4.20305 13.4735 4.19842 10.8235V6.97813H0.697857C0.559637 6.97861 0.424382 6.93413 0.309137 6.8503C0.193891 6.76647 0.103812 6.64705 0.0502526 6.50708C-0.000187373 6.36502 -0.0129833 6.21019 0.0133449 6.06048C0.0396732 5.91077 0.10405 5.7723 0.199027 5.66111L4.3997 1.04672C4.53244 0.902305 4.71171 0.821289 4.89853 0.821289C5.08536 0.821289 5.26463 0.902305 5.39736 1.04672L9.59804 5.66111C9.69302 5.7723 9.75739 5.91077 9.78372 6.06048C9.81005 6.21019 9.79725 6.36502 9.74681 6.50708C9.69325 6.64705 9.60318 6.76647 9.48793 6.8503C9.37269 6.93413 9.23743 6.97861 9.09921 6.97813H5.59865V10.8235C5.60096 13.0663 6.41308 15.2166 7.85685 16.8026C9.30061 18.3885 11.2581 19.2806 13.2999 19.2832C13.4856 19.2832 13.6636 19.3642 13.7949 19.5084C13.9262 19.6526 14 19.8483 14 20.0522Z" fill="#1464C0"/>
</svg>
