<svg width="20" height="14" viewBox="0 0 20 14" fill="none" xmlns="http://www.w3.org/2000/svg">
<path d="M19.3205 6.75C19.297 6.6875 18.633 5.21875 17.1642 3.74219C15.2033 1.78906 12.7267 0.75 10.0002 0.75C7.2736 0.75 4.79704 1.78906 2.8361 3.74219C1.36735 5.21875 0.703291 6.6875 0.679853 6.75C0.644973 6.82873 0.626953 6.91389 0.626953 7C0.626953 7.08611 0.644973 7.17127 0.679853 7.25C0.703291 7.3125 1.36735 8.78125 2.8361 10.2578C4.79704 12.2109 7.2736 13.25 10.0002 13.25C12.7267 13.25 15.2033 12.2109 17.1642 10.2578C18.633 8.78125 19.297 7.3125 19.3205 7.25C19.3554 7.17127 19.3734 7.08611 19.3734 7C19.3734 6.91389 19.3554 6.82873 19.3205 6.75ZM10.0002 4.1875C10.5564 4.1875 11.1002 4.35245 11.5627 4.66149C12.0252 4.97053 12.3857 5.40979 12.5986 5.9237C12.8114 6.43762 12.8671 7.00312 12.7586 7.54869C12.6501 8.09426 12.3822 8.5954 11.9889 8.98874C11.5956 9.38207 11.0944 9.64994 10.5489 9.75846C10.0033 9.86698 9.43779 9.81128 8.92387 9.59841C8.40995 9.38554 7.9707 9.02505 7.66166 8.56254C7.35262 8.10003 7.18767 7.55626 7.18767 7C7.18767 6.25408 7.48398 5.53871 8.01143 5.01126C8.53887 4.48382 9.25424 4.1875 10.0002 4.1875Z" fill="#4D4D4D"/>
</svg>
