<svg width="24" height="25" viewBox="0 0 24 25" fill="none" xmlns="http://www.w3.org/2000/svg">
<path d="M19.6154 4.82129H4.38462C4.01739 4.82129 3.66521 4.96496 3.40554 5.22069C3.14588 5.47642 3 5.82327 3 6.18493V18.4577C3 18.8193 3.14588 19.1662 3.40554 19.4219C3.66521 19.6776 4.01739 19.8213 4.38462 19.8213H19.6154C19.9826 19.8213 20.3348 19.6776 20.5945 19.4219C20.8541 19.1662 21 18.8193 21 18.4577V6.18493C21 5.82327 20.8541 5.47642 20.5945 5.22069C20.3348 4.96496 19.9826 4.82129 19.6154 4.82129ZM12 15.0486C10.8983 15.0486 9.84178 14.6176 9.06279 13.8504C8.28379 13.0832 7.84615 12.0426 7.84615 10.9577C7.84615 10.7768 7.91909 10.6034 8.04893 10.4755C8.17876 10.3477 8.35485 10.2758 8.53846 10.2758C8.72207 10.2758 8.89816 10.3477 9.028 10.4755C9.15783 10.6034 9.23077 10.7768 9.23077 10.9577C9.23077 11.681 9.52253 12.3747 10.0419 12.8861C10.5612 13.3976 11.2656 13.6849 12 13.6849C12.7344 13.6849 13.4388 13.3976 13.9581 12.8861C14.4775 12.3747 14.7692 11.681 14.7692 10.9577C14.7692 10.7768 14.8422 10.6034 14.972 10.4755C15.1018 10.3477 15.2779 10.2758 15.4615 10.2758C15.6452 10.2758 15.8212 10.3477 15.9511 10.4755C16.0809 10.6034 16.1538 10.7768 16.1538 10.9577C16.1538 12.0426 15.7162 13.0832 14.9372 13.8504C14.1582 14.6176 13.1017 15.0486 12 15.0486ZM4.38462 7.54856V6.18493H19.6154V7.54856H4.38462Z" fill="#1464C0"/>
</svg>
