<svg width="14" height="21" viewBox="0 0 14 21" fill="none" xmlns="http://www.w3.org/2000/svg">
<path d="M14 1.5905C14 1.79451 13.9262 1.99016 13.7949 2.13442C13.6636 2.27867 13.4856 2.35971 13.2999 2.35971C11.2581 2.36226 9.30061 3.25453 7.85685 4.84079C6.41308 6.42705 5.60096 8.57774 5.59865 10.821V14.6671H9.09921C9.23743 14.6666 9.37269 14.7111 9.48793 14.795C9.60318 14.8788 9.69325 14.9982 9.74681 15.1382C9.79725 15.2803 9.81005 15.4352 9.78372 15.5849C9.75739 15.7347 9.69302 15.8732 9.59804 15.9844L5.39736 20.5997C5.26354 20.7418 5.08468 20.8213 4.89853 20.8213C4.71239 20.8213 4.53352 20.7418 4.3997 20.5997L0.199027 15.9844C0.10405 15.8732 0.0396732 15.7347 0.0133449 15.5849C-0.0129833 15.4352 -0.000187373 15.2803 0.0502526 15.1382C0.103812 14.9982 0.193891 14.8788 0.309137 14.795C0.424382 14.7111 0.559637 14.6666 0.697857 14.6671H4.19842V10.821C4.20305 8.17051 5.16343 5.62998 6.86929 3.75576C8.57514 1.88155 10.8874 0.826372 13.2999 0.821289C13.4856 0.821289 13.6636 0.902331 13.7949 1.04659C13.9262 1.19084 14 1.38649 14 1.5905Z" fill="#1464C0"/>
</svg>
