<svg width="20" height="28" viewBox="0 0 20 28" fill="none" xmlns="http://www.w3.org/2000/svg">
<path d="M19.3333 1.69212C19.3333 1.96413 19.2349 2.225 19.0599 2.41734C18.8848 2.60968 18.6474 2.71774 18.3998 2.71774C15.6774 2.72113 13.0674 3.91083 11.1424 6.02584C9.21741 8.14085 8.13458 11.0084 8.13149 13.9995V19.1276H12.7989C12.9832 19.127 13.1635 19.1863 13.3172 19.2981C13.4709 19.4099 13.591 19.5691 13.6624 19.7558C13.7296 19.9452 13.7467 20.1517 13.7116 20.3514C13.6765 20.551 13.5907 20.7357 13.464 20.884L7.86311 27.0377C7.68469 27.2272 7.4462 27.3332 7.198 27.3332C6.94981 27.3332 6.71132 27.2272 6.5329 27.0377L0.931995 20.884C0.805359 20.7357 0.719524 20.551 0.684419 20.3514C0.649315 20.1517 0.666376 19.9452 0.733629 19.7558C0.805042 19.5691 0.925148 19.4099 1.07881 19.2981C1.23247 19.1863 1.41281 19.127 1.5971 19.1276H6.26452V13.9995C6.27069 10.4655 7.55121 7.07809 9.82568 4.57914C12.1002 2.08018 15.1832 0.673281 18.3998 0.666504C18.6474 0.666504 18.8848 0.77456 19.0599 0.9669C19.2349 1.15924 19.3333 1.42011 19.3333 1.69212Z" fill="#1464C0"/>
</svg>
