<svg width="40" height="40" viewBox="0 0 40 40" fill="none" xmlns="http://www.w3.org/2000/svg">
<rect x="0.5" y="0.5" width="39" height="39" rx="11.5" fill="#EFFFF6"/>
<path d="M29.3205 19.75C29.297 19.6875 28.633 18.2188 27.1642 16.7422C25.2033 14.7891 22.7267 13.75 20.0002 13.75C17.2736 13.75 14.797 14.7891 12.8361 16.7422C11.3674 18.2188 10.7033 19.6875 10.6799 19.75C10.645 19.8287 10.627 19.9139 10.627 20C10.627 20.0861 10.645 20.1713 10.6799 20.25C10.7033 20.3125 11.3674 21.7812 12.8361 23.2578C14.797 25.2109 17.2736 26.25 20.0002 26.25C22.7267 26.25 25.2033 25.2109 27.1642 23.2578C28.633 21.7812 29.297 20.3125 29.3205 20.25C29.3554 20.1713 29.3734 20.0861 29.3734 20C29.3734 19.9139 29.3554 19.8287 29.3205 19.75ZM20.0002 17.1875C20.5564 17.1875 21.1002 17.3525 21.5627 17.6615C22.0252 17.9705 22.3857 18.4098 22.5986 18.9237C22.8114 19.4376 22.8671 20.0031 22.7586 20.5487C22.6501 21.0943 22.3822 21.5954 21.9889 21.9887C21.5956 22.3821 21.0944 22.6499 20.5489 22.7585C20.0033 22.867 19.4378 22.8113 18.9239 22.5984C18.41 22.3855 17.9707 22.0251 17.6617 21.5625C17.3526 21.1 17.1877 20.5563 17.1877 20C17.1877 19.2541 17.484 18.5387 18.0114 18.0113C18.5389 17.4838 19.2542 17.1875 20.0002 17.1875Z" fill="#18CF6C"/>
<rect x="0.5" y="0.5" width="39" height="39" rx="11.5" stroke="#63EDA2"/>
</svg>
