<svg width="40" height="40" viewBox="0 0 40 40" fill="none" xmlns="http://www.w3.org/2000/svg">
<rect x="0.5" y="0.5" width="39" height="39" rx="11.5" fill="#DDEBFB"/>
<path d="M27.5 15.9925L24.0391 12.5238C23.806 12.2848 23.4898 12.1449 23.1562 12.1331C22.987 12.1292 22.8187 12.1598 22.6615 12.2229C22.5044 12.286 22.3617 12.3804 22.2422 12.5003L20.1797 14.555L12.8672 21.8753C12.7507 21.9909 12.6583 22.1285 12.5953 22.28C12.5322 22.4315 12.4999 22.594 12.5 22.7581V26.2503C12.5 26.5819 12.6317 26.8998 12.8661 27.1342C13.1005 27.3686 13.4185 27.5003 13.75 27.5003H17.2422C17.5733 27.4989 17.8905 27.367 18.125 27.1331L27.5 17.7581C27.7319 17.5228 27.8619 17.2057 27.8619 16.8753C27.8619 16.545 27.7319 16.2278 27.5 15.9925ZM25 18.4925L21.5078 15.0003L23.125 13.3831L26.6172 16.8753L25 18.4925Z" fill="#1464C0"/>
<rect x="0.5" y="0.5" width="39" height="39" rx="11.5" stroke="#9AC4F4"/>
</svg>
