<svg width="40" height="40" viewBox="0 0 40 40" fill="none" xmlns="http://www.w3.org/2000/svg">
<rect x="0.5" y="0.5" width="39" height="39" rx="11.5" fill="#FCE6E8"/>
<path d="M26.875 13.75H23.75V13.125C23.7479 12.6284 23.5497 12.1526 23.1986 11.8014C22.8474 11.4503 22.3716 11.2521 21.875 11.25H18.125C17.6284 11.2521 17.1526 11.4503 16.8014 11.8014C16.4503 12.1526 16.2521 12.6284 16.25 13.125V13.75H13.125C12.9592 13.75 12.8003 13.8158 12.6831 13.9331C12.5658 14.0503 12.5 14.2092 12.5 14.375C12.5 14.5408 12.5658 14.6997 12.6831 14.8169C12.8003 14.9342 12.9592 15 13.125 15H13.75V26.25C13.75 26.5815 13.8817 26.8995 14.1161 27.1339C14.3505 27.3683 14.6685 27.5 15 27.5H25C25.3315 27.5 25.6495 27.3683 25.8839 27.1339C26.1183 26.8995 26.25 26.5815 26.25 26.25V15H26.875C27.0408 15 27.1997 14.9342 27.3169 14.8169C27.4342 14.6997 27.5 14.5408 27.5 14.375C27.5 14.2092 27.4342 14.0503 27.3169 13.9331C27.1997 13.8158 27.0408 13.75 26.875 13.75ZM18.75 23.125C18.75 23.2908 18.6842 23.4497 18.5669 23.5669C18.4497 23.6842 18.2908 23.75 18.125 23.75C17.9592 23.75 17.8003 23.6842 17.6831 23.5669C17.5658 23.4497 17.5 23.2908 17.5 23.125V18.125C17.5 17.9592 17.5658 17.8003 17.6831 17.6831C17.8003 17.5658 17.9592 17.5 18.125 17.5C18.2908 17.5 18.4497 17.5658 18.5669 17.6831C18.6842 17.8003 18.75 17.9592 18.75 18.125V23.125ZM22.5 23.125C22.5 23.2908 22.4342 23.4497 22.3169 23.5669C22.1997 23.6842 22.0408 23.75 21.875 23.75C21.7092 23.75 21.5503 23.6842 21.4331 23.5669C21.3158 23.4497 21.25 23.2908 21.25 23.125V18.125C21.25 17.9592 21.3158 17.8003 21.4331 17.6831C21.5503 17.5658 21.7092 17.5 21.875 17.5C22.0408 17.5 22.1997 17.5658 22.3169 17.6831C22.4342 17.8003 22.5 17.9592 22.5 18.125V23.125ZM22.5 13.75H17.5V13.125C17.5 12.9592 17.5658 12.8003 17.6831 12.6831C17.8003 12.5658 17.9592 12.5 18.125 12.5H21.875C22.0408 12.5 22.1997 12.5658 22.3169 12.6831C22.4342 12.8003 22.5 12.9592 22.5 13.125V13.75Z" fill="#E63943"/>
<rect x="0.5" y="0.5" width="39" height="39" rx="11.5" stroke="#F6B5B9"/>
</svg>
