<svg width="40" height="40" viewBox="0 0 40 40" fill="none" xmlns="http://www.w3.org/2000/svg">
<rect x="0.5" y="0.5" width="39" height="39" rx="11.5" fill="#FEF2E7"/>
<path d="M26.6953 13.3047C25.9133 12.5252 24.8542 12.0874 23.75 12.0874C22.6458 12.0874 21.5867 12.5252 20.8047 13.3047L13.3047 20.8047C12.5236 21.5858 12.0847 22.6453 12.0847 23.75C12.0847 24.8547 12.5236 25.9142 13.3047 26.6953C14.0859 27.4765 15.1453 27.9153 16.25 27.9153C17.3547 27.9153 18.4142 27.4765 19.1953 26.6953L26.6953 19.1953C27.473 18.4123 27.9094 17.3535 27.9094 16.25C27.9094 15.1465 27.473 14.0877 26.6953 13.3047ZM25.8047 18.3047L22.5 21.6172L18.3828 17.5L21.6953 14.1953C21.9636 13.9227 22.2834 13.7062 22.6362 13.5585C22.9889 13.4107 23.3676 13.3346 23.75 13.3346C24.1325 13.3346 24.5111 13.4107 24.8639 13.5585C25.2166 13.7062 25.5364 13.9227 25.8047 14.1953C26.0754 14.4646 26.2902 14.7848 26.4368 15.1374C26.5834 15.49 26.6588 15.8681 26.6588 16.25C26.6588 16.6319 26.5834 17.01 26.4368 17.3626C26.2902 17.7152 26.0754 18.0354 25.8047 18.3047ZM24.8594 16.4766C24.9172 16.5351 24.9627 16.6046 24.9933 16.6809C25.0239 16.7573 25.0389 16.839 25.0374 16.9213C25.036 17.0035 25.0181 17.0846 24.9848 17.1599C24.9516 17.2351 24.9036 17.3029 24.8438 17.3594L22.9375 19.2031C22.879 19.2609 22.8095 19.3065 22.7331 19.3371C22.6568 19.3676 22.5751 19.3826 22.4928 19.3812C22.4106 19.3797 22.3294 19.3618 22.2542 19.3286C22.179 19.2953 22.1111 19.2474 22.0547 19.1875C21.9969 19.129 21.9514 19.0595 21.9208 18.9831C21.8902 18.9068 21.8752 18.8251 21.8767 18.7428C21.8781 18.6606 21.896 18.5794 21.9293 18.5042C21.9625 18.429 22.0105 18.3611 22.0703 18.3047L23.9766 16.4609C24.0958 16.3461 24.2557 16.2833 24.4212 16.2862C24.5867 16.2891 24.7443 16.3576 24.8594 16.4766Z" fill="#F69641"/>
<rect x="0.5" y="0.5" width="39" height="39" rx="11.5" stroke="#FCD8B8"/>
</svg>
