<svg width="20" height="14" viewBox="0 0 20 14" fill="none" xmlns="http://www.w3.org/2000/svg">
<path d="M19.3203 6.75C19.2969 6.6875 18.6328 5.21875 17.1641 3.74219C15.2031 1.78906 12.7266 0.75 10 0.75C7.27345 0.75 4.79689 1.78906 2.83595 3.74219C1.3672 5.21875 0.703138 6.6875 0.6797 6.75C0.64482 6.82873 0.626801 6.91389 0.626801 7C0.626801 7.08611 0.64482 7.17127 0.6797 7.25C0.703138 7.3125 1.3672 8.78125 2.83595 10.2578C4.79689 12.2109 7.27345 13.25 10 13.25C12.7266 13.25 15.2031 12.2109 17.1641 10.2578C18.6328 8.78125 19.2969 7.3125 19.3203 7.25C19.3552 7.17127 19.3732 7.08611 19.3732 7C19.3732 6.91389 19.3552 6.82873 19.3203 6.75ZM10 4.1875C10.5563 4.1875 11.1 4.35245 11.5626 4.66149C12.0251 4.97053 12.3856 5.40979 12.5984 5.9237C12.8113 6.43762 12.867 7.00312 12.7585 7.54869C12.65 8.09426 12.3821 8.5954 11.9888 8.98874C11.5954 9.38207 11.0943 9.64994 10.5487 9.75846C10.0031 9.86698 9.43763 9.81128 8.92372 9.59841C8.4098 9.38554 7.97055 9.02505 7.6615 8.56254C7.35246 8.10003 7.18751 7.55626 7.18751 7C7.18751 6.25408 7.48383 5.53871 8.01128 5.01126C8.53872 4.48382 9.25409 4.1875 10 4.1875Z" fill="#1464C0"/>
</svg>
