<svg width="20" height="10" viewBox="0 0 20 10" fill="none" xmlns="http://www.w3.org/2000/svg">
<path d="M12.0079 2.00791L5.13291 8.88291C5.01345 8.99842 4.85377 9.06299 4.6876 9.06299C4.52142 9.06299 4.36175 8.99842 4.24229 8.88291L0.804786 5.44541C0.705121 5.32398 0.654189 5.16981 0.661895 5.0129C0.669602 4.856 0.735396 4.70756 0.84648 4.59648C0.957564 4.4854 1.106 4.4196 1.2629 4.4119C1.41981 4.40419 1.57398 4.45512 1.69541 4.55479L4.6876 7.55479L11.1173 1.11729C11.2387 1.01762 11.3929 0.966689 11.5498 0.974395C11.7067 0.982101 11.8551 1.0479 11.9662 1.15898C12.0773 1.27006 12.1431 1.4185 12.1508 1.5754C12.1585 1.73231 12.1076 1.88648 12.0079 2.00791ZM19.1954 1.11729C19.0769 0.999922 18.9169 0.934082 18.7501 0.934082C18.5833 0.934082 18.4233 0.999922 18.3048 1.11729L11.8751 7.55479L10.4923 6.17197C10.3734 6.06425 10.2176 6.00637 10.0572 6.01032C9.89686 6.01427 9.74413 6.07974 9.63069 6.19319C9.51724 6.30663 9.45177 6.45936 9.44782 6.61974C9.44387 6.78013 9.50175 6.9359 9.60947 7.05479L11.4298 8.88291C11.5492 8.99842 11.7089 9.06299 11.8751 9.06299C12.0413 9.06299 12.2009 8.99842 12.3204 8.88291L19.1954 2.00791C19.3128 1.88941 19.3786 1.72938 19.3786 1.5626C19.3786 1.39582 19.3128 1.23578 19.1954 1.11729Z" fill="#888888"/>
</svg>
