<svg width="24" height="24" viewBox="0 0 24 24" fill="none" xmlns="http://www.w3.org/2000/svg">
<path d="M4.5 12H19.5C19.6989 12 19.8897 11.921 20.0303 11.7803C20.171 11.6397 20.25 11.4489 20.25 11.25V7.50001C20.2511 7.30048 20.1737 7.10851 20.0344 6.96564L14.7844 1.71564C14.6415 1.57635 14.4495 1.49889 14.25 1.50001H5.25C4.85218 1.50001 4.47064 1.65805 4.18934 1.93935C3.90804 2.22066 3.75 2.60219 3.75 3.00001V11.25C3.75 11.4489 3.82902 11.6397 3.96967 11.7803C4.11032 11.921 4.30109 12 4.5 12ZM14.25 3.37501L18.375 7.50001H14.25V3.37501Z" fill="#888888"/>
<path d="M4.99249 19.5684C4.77249 19.5684 4.60249 19.5084 4.48249 19.3884C4.36249 19.2634 4.30249 19.0909 4.30249 18.8709V14.9109C4.30249 14.6859 4.36249 14.5134 4.48249 14.3934C4.60749 14.2734 4.77999 14.2134 4.99999 14.2134H6.84499C7.44499 14.2134 7.90749 14.3684 8.23249 14.6784C8.56249 14.9834 8.72749 15.4059 8.72749 15.9459C8.72749 16.4859 8.56249 16.9109 8.23249 17.2209C7.90749 17.5259 7.44499 17.6784 6.84499 17.6784H5.68249V18.8709C5.68249 19.0909 5.62499 19.2634 5.50999 19.3884C5.39499 19.5084 5.22249 19.5684 4.99249 19.5684ZM5.68249 16.6209H6.60499C6.86499 16.6209 7.06499 16.5659 7.20499 16.4559C7.34499 16.3409 7.41499 16.1709 7.41499 15.9459C7.41499 15.7159 7.34499 15.5459 7.20499 15.4359C7.06499 15.3259 6.86499 15.2709 6.60499 15.2709H5.68249V16.6209Z" fill="#888888"/>
<path d="M10.0158 19.5684C9.80585 19.5684 9.64585 19.5134 9.53585 19.4034C9.42585 19.2934 9.37085 19.1309 9.37085 18.9159V14.8284C9.37085 14.6084 9.42585 14.4409 9.53585 14.3259C9.64585 14.2059 9.79085 14.1459 9.97085 14.1459C10.1308 14.1459 10.2558 14.1759 10.3458 14.2359C10.4358 14.2959 10.5358 14.3959 10.6458 14.5359L13.0233 17.5059H12.8133V14.7909C12.8133 14.5809 12.8658 14.4209 12.9708 14.3109C13.0808 14.2009 13.2409 14.1459 13.4508 14.1459C13.6608 14.1459 13.8183 14.2009 13.9233 14.3109C14.0333 14.4209 14.0883 14.5809 14.0883 14.7909V18.9459C14.0883 19.1359 14.0383 19.2884 13.9383 19.4034C13.8384 19.5134 13.7034 19.5684 13.5333 19.5684C13.3633 19.5684 13.2283 19.5384 13.1283 19.4784C13.0333 19.4134 12.9309 19.3134 12.8209 19.1784L10.4433 16.2009H10.6533V18.9159C10.6533 19.1309 10.5983 19.2934 10.4883 19.4034C10.3833 19.5134 10.2258 19.5684 10.0158 19.5684Z" fill="#888888"/>
<path d="M17.7544 19.5834C17.1494 19.5834 16.6344 19.4709 16.2094 19.2459C15.7894 19.0209 15.4694 18.7059 15.2494 18.3009C15.0294 17.8959 14.9194 17.4234 14.9194 16.8834C14.9194 16.4634 14.9844 16.0859 15.1144 15.7509C15.2494 15.4109 15.4419 15.1209 15.6919 14.8809C15.9419 14.6359 16.2469 14.4509 16.6069 14.3259C16.9719 14.1959 17.3844 14.1309 17.8444 14.1309C18.0944 14.1309 18.3494 14.1559 18.6094 14.2059C18.8694 14.2509 19.1244 14.3384 19.3744 14.4684C19.5044 14.5284 19.5919 14.6134 19.6369 14.7234C19.6869 14.8284 19.7019 14.9409 19.6819 15.0609C19.6669 15.1759 19.6244 15.2834 19.5544 15.3834C19.4894 15.4784 19.3994 15.5434 19.2844 15.5784C19.1694 15.6084 19.0394 15.5909 18.8944 15.5259C18.7444 15.4559 18.5819 15.4034 18.4069 15.3684C18.2319 15.3284 18.0469 15.3084 17.8519 15.3084C17.5169 15.3084 17.2369 15.3684 17.0119 15.4884C16.7919 15.6084 16.6269 15.7859 16.5169 16.0209C16.4069 16.2559 16.3519 16.5434 16.3519 16.8834C16.3519 17.3934 16.4769 17.7784 16.7269 18.0384C16.9769 18.2984 17.3469 18.4284 17.8369 18.4284C17.9869 18.4284 18.1494 18.4134 18.3244 18.3834C18.5044 18.3534 18.6844 18.3109 18.8644 18.2559L18.6094 18.7734V17.4909H18.0844C17.9144 17.4909 17.7819 17.4484 17.6869 17.3634C17.5969 17.2784 17.5519 17.1584 17.5519 17.0034C17.5519 16.8484 17.5969 16.7309 17.6869 16.6509C17.7819 16.5659 17.9144 16.5234 18.0844 16.5234H19.1944C19.3694 16.5234 19.5019 16.5709 19.5919 16.6659C19.6869 16.7559 19.7344 16.8884 19.7344 17.0634V18.7209C19.7344 18.8709 19.7019 18.9984 19.6369 19.1034C19.5769 19.2084 19.4794 19.2834 19.3444 19.3284C19.1094 19.4084 18.8544 19.4709 18.5794 19.5159C18.3044 19.5609 18.0294 19.5834 17.7544 19.5834Z" fill="#888888"/>
</svg>
