<svg width="24" height="25" viewBox="0 0 24 25" fill="none" xmlns="http://www.w3.org/2000/svg">
<path d="M20.0343 4.78696C19.0959 3.85151 17.825 3.32623 16.4999 3.32623C15.1749 3.32623 13.904 3.85151 12.9656 4.78696L3.96557 13.787C3.0282 14.7243 2.50159 15.9957 2.50159 17.3213C2.50159 18.647 3.0282 19.9183 3.96557 20.8557C4.90295 21.7931 6.1743 22.3197 7.49995 22.3197C8.82559 22.3197 10.0969 21.7931 11.0343 20.8557L20.0343 11.8557C20.9675 10.9161 21.4912 9.64559 21.4912 8.32134C21.4912 6.99708 20.9675 5.72656 20.0343 4.78696ZM18.9656 10.787L14.9999 14.762L10.0593 9.82134L14.0343 5.85571C14.3562 5.5286 14.74 5.26882 15.1633 5.0915C15.5866 4.91417 16.041 4.82285 16.4999 4.82285C16.9589 4.82285 17.4133 4.91417 17.8366 5.0915C18.2599 5.26882 18.6437 5.5286 18.9656 5.85571C19.2904 6.17891 19.5482 6.56312 19.7241 6.98625C19.9 7.40938 19.9905 7.8631 19.9905 8.32134C19.9905 8.77957 19.9 9.23329 19.7241 9.65642C19.5482 10.0796 19.2904 10.4638 18.9656 10.787ZM17.8312 8.59321C17.9006 8.66343 17.9552 8.74681 17.9919 8.83845C18.0286 8.9301 18.0466 9.02815 18.0449 9.12685C18.0431 9.22554 18.0216 9.3229 17.9817 9.41318C17.9418 9.50347 17.8843 9.58486 17.8124 9.65259L15.5249 11.8651C15.4547 11.9345 15.3713 11.9891 15.2797 12.0258C15.1881 12.0625 15.09 12.0805 14.9913 12.0787C14.8926 12.077 14.7953 12.0555 14.705 12.0156C14.6147 11.9757 14.5333 11.9182 14.4656 11.8463C14.3962 11.7761 14.3416 11.6927 14.3049 11.6011C14.2682 11.5094 14.2502 11.4114 14.2519 11.3127C14.2537 11.214 14.2751 11.1166 14.315 11.0264C14.3549 10.9361 14.4125 10.8547 14.4843 10.787L16.7718 8.57446C16.9149 8.43666 17.1068 8.36124 17.3054 8.36476C17.504 8.36827 17.6931 8.45043 17.8312 8.59321Z" fill="#1464C0"/>
</svg>
