<svg width="20" height="10" viewBox="0 0 20 10" fill="none" xmlns="http://www.w3.org/2000/svg">
<path d="M12.0078 2.00779L5.13279 8.88279C5.01333 8.9983 4.85365 9.06287 4.68748 9.06287C4.5213 9.06287 4.36163 8.9983 4.24216 8.88279L0.804664 5.44529C0.704999 5.32385 0.654067 5.16969 0.661773 5.01278C0.669479 4.85587 0.735274 4.70744 0.846358 4.59636C0.957442 4.48527 1.10587 4.41948 1.26278 4.41177C1.41969 4.40407 1.57385 4.455 1.69529 4.55466L4.68748 7.55466L11.1172 1.11716C11.2386 1.0175 11.3928 0.966567 11.5497 0.974273C11.7066 0.981979 11.855 1.04777 11.9661 1.15886C12.0772 1.26994 12.143 1.41837 12.1507 1.57528C12.1584 1.73219 12.1075 1.88635 12.0078 2.00779ZM19.1953 1.11716C19.0768 0.9998 18.9168 0.93396 18.75 0.93396C18.5832 0.93396 18.4232 0.9998 18.3047 1.11716L11.875 7.55466L10.4922 6.17185C10.3733 6.06413 10.2175 6.00625 10.0571 6.0102C9.89674 6.01414 9.74401 6.07962 9.63056 6.19306C9.51712 6.30651 9.45164 6.45924 9.4477 6.61962C9.44375 6.78001 9.50163 6.93577 9.60935 7.05466L11.4297 8.88279C11.5491 8.9983 11.7088 9.06287 11.875 9.06287C12.0412 9.06287 12.2008 8.9983 12.3203 8.88279L19.1953 2.00779C19.3127 1.88929 19.3785 1.72926 19.3785 1.56248C19.3785 1.3957 19.3127 1.23566 19.1953 1.11716Z" fill="#18CF6C"/>
</svg>
