<svg width="15" height="18" viewBox="0 0 15 18" fill="none" xmlns="http://www.w3.org/2000/svg">
<path d="M14.3828 8.55464C14.4991 8.67416 14.5636 8.83477 14.5621 9.00156C14.5606 9.16834 14.4934 9.3278 14.375 9.44526L7.96874 15.8437C7.14823 16.6642 6.03538 17.1252 4.87499 17.1252C3.71461 17.1252 2.60176 16.6642 1.78124 15.8437C0.960731 15.0232 0.499771 13.9103 0.499771 12.7499C0.499771 11.5896 0.960731 10.4767 1.78124 9.6562L9.53906 1.79682C9.82609 1.49418 10.1708 1.25206 10.5529 1.08473C10.935 0.917406 11.3467 0.828263 11.7637 0.822558C12.1808 0.816853 12.5948 0.8947 12.9813 1.05151C13.3678 1.20832 13.719 1.44092 14.0142 1.7356C14.3094 2.03028 14.5427 2.38108 14.7002 2.76732C14.8576 3.15355 14.9362 3.5674 14.9313 3.98449C14.9263 4.40157 14.8379 4.81343 14.6712 5.19581C14.5046 5.57818 14.2631 5.92332 13.9609 6.21089L6.20312 14.0703C6.02971 14.2463 5.82295 14.3861 5.5949 14.4813C5.36686 14.5766 5.12212 14.6254 4.87499 14.6249C4.50348 14.6259 4.14008 14.5164 3.83089 14.3104C3.5217 14.1045 3.28066 13.8113 3.13837 13.4681C2.99607 13.1249 2.95894 12.7472 3.03167 12.3829C3.1044 12.0186 3.28371 11.6841 3.54687 11.4218L10.0547 4.81245C10.111 4.74928 10.1795 4.69821 10.2562 4.66233C10.3328 4.62645 10.416 4.6065 10.5005 4.60371C10.5851 4.60091 10.6694 4.61532 10.7482 4.64605C10.8271 4.67679 10.8988 4.72322 10.9592 4.78253C11.0196 4.84184 11.0673 4.91278 11.0994 4.99107C11.1315 5.06936 11.1474 5.15335 11.1461 5.23797C11.1448 5.32258 11.1264 5.40605 11.0918 5.48331C11.0573 5.56058 11.0075 5.63003 10.9453 5.68745L4.43749 12.3046C4.37825 12.3627 4.33116 12.432 4.29897 12.5084C4.26678 12.5849 4.25013 12.667 4.24999 12.7499C4.25229 12.8729 4.29036 12.9925 4.35955 13.0942C4.42875 13.1959 4.52606 13.2752 4.63961 13.3224C4.75315 13.3697 4.878 13.3828 4.99889 13.3602C5.11978 13.3376 5.23147 13.2803 5.32031 13.1953L13.0703 5.32807C13.2464 5.15467 13.3861 4.9479 13.4814 4.71986C13.5766 4.49182 13.6254 4.24708 13.625 3.99995C13.6259 3.62844 13.5164 3.26503 13.3105 2.95584C13.1045 2.64665 12.8113 2.40562 12.4682 2.26332C12.125 2.12103 11.7473 2.08389 11.3829 2.15662C11.0186 2.22935 10.6841 2.40867 10.4219 2.67182L2.67187 10.539C2.36922 10.826 2.1271 11.1708 1.95978 11.5528C1.79245 11.9349 1.70331 12.3466 1.6976 12.7637C1.6919 13.1808 1.76974 13.5948 1.92656 13.9813C2.08337 14.3678 2.31597 14.719 2.61065 15.0142C2.90533 15.3094 3.25613 15.5426 3.64236 15.7001C4.02859 15.8576 4.44245 15.9362 4.85953 15.9312C5.27661 15.9262 5.68848 15.8378 6.07085 15.6712C6.45322 15.5045 6.79837 15.263 7.08593 14.9609L13.4922 8.55464C13.6107 8.43727 13.7707 8.37143 13.9375 8.37143C14.1043 8.37143 14.2643 8.43727 14.3828 8.55464Z" fill="#1464C0"/>
</svg>
