<svg width="18" height="18" viewBox="0 0 18 18" fill="none" xmlns="http://www.w3.org/2000/svg">
<path d="M9 0.875C7.39303 0.875 5.82214 1.35152 4.486 2.24431C3.14985 3.1371 2.10844 4.40605 1.49348 5.8907C0.87852 7.37535 0.717618 9.00901 1.03112 10.5851C1.34463 12.1612 2.11846 13.6089 3.25476 14.7452C4.39106 15.8815 5.8388 16.6554 7.4149 16.9689C8.99099 17.2824 10.6247 17.1215 12.1093 16.5065C13.594 15.8916 14.8629 14.8502 15.7557 13.514C16.6485 12.1779 17.125 10.607 17.125 9C17.1209 6.84638 16.2635 4.78216 14.7407 3.25932C13.2178 1.73648 11.1536 0.87913 9 0.875ZM13.375 9.625H9C8.83424 9.625 8.67527 9.55915 8.55806 9.44194C8.44085 9.32473 8.375 9.16576 8.375 9V4.625C8.375 4.45924 8.44085 4.30027 8.55806 4.18306C8.67527 4.06585 8.83424 4 9 4C9.16576 4 9.32474 4.06585 9.44195 4.18306C9.55916 4.30027 9.625 4.45924 9.625 4.625V8.375H13.375C13.5408 8.375 13.6997 8.44085 13.8169 8.55806C13.9342 8.67527 14 8.83424 14 9C14 9.16576 13.9342 9.32473 13.8169 9.44194C13.6997 9.55915 13.5408 9.625 13.375 9.625Z" fill="#888888"/>
</svg>
