<svg width="38" height="26" viewBox="0 0 38 26" fill="none" xmlns="http://www.w3.org/2000/svg">
<path d="M13.1231 25.9977C12.6924 25.9919 12.2794 25.8252 11.9653 25.5305L0.590294 14.1555C0.331167 13.8398 0.198743 13.439 0.218779 13.031C0.238816 12.623 0.40988 12.2371 0.698699 11.9483C0.987518 11.6595 1.37344 11.4884 1.7814 11.4684C2.18936 11.4484 2.59019 11.5808 2.90592 11.8399L13.1231 22.0774L34.7153 0.464904C35.031 0.205777 35.4319 0.0733517 35.8398 0.0933881C36.2478 0.113424 36.6337 0.28449 36.9225 0.573309C37.2113 0.862128 37.3824 1.24805 37.4024 1.65601C37.4225 2.06397 37.29 2.4648 37.0309 2.78053L14.2809 25.5305C13.9668 25.8252 13.5538 25.9919 13.1231 25.9977Z" fill="#18CF6C"/>
</svg>
