<svg width="17" height="18" viewBox="0 0 17 18" fill="none" xmlns="http://www.w3.org/2000/svg">
<path d="M9.125 1.5V4C9.125 4.16576 9.05915 4.32473 8.94194 4.44194C8.82473 4.55915 8.66576 4.625 8.5 4.625C8.33424 4.625 8.17527 4.55915 8.05806 4.44194C7.94085 4.32473 7.875 4.16576 7.875 4V1.5C7.875 1.33424 7.94085 1.17527 8.05806 1.05806C8.17527 0.940848 8.33424 0.875 8.5 0.875C8.66576 0.875 8.82473 0.940848 8.94194 1.05806C9.05915 1.17527 9.125 1.33424 9.125 1.5ZM16 8.375H13.5C13.3342 8.375 13.1753 8.44085 13.0581 8.55806C12.9408 8.67527 12.875 8.83424 12.875 9C12.875 9.16576 12.9408 9.32473 13.0581 9.44194C13.1753 9.55915 13.3342 9.625 13.5 9.625H16C16.1658 9.625 16.3247 9.55915 16.4419 9.44194C16.5592 9.32473 16.625 9.16576 16.625 9C16.625 8.83424 16.5592 8.67527 16.4419 8.55806C16.3247 8.44085 16.1658 8.375 16 8.375ZM12.4766 12.0938C12.3577 11.986 12.2019 11.9281 12.0415 11.9321C11.8811 11.936 11.7284 12.0015 11.615 12.115C11.5015 12.2284 11.436 12.3811 11.4321 12.5415C11.4281 12.7019 11.486 12.8577 11.5938 12.9766L13.3594 14.7422C13.4174 14.8014 13.4867 14.8485 13.5632 14.8807C13.6396 14.9129 13.7217 14.9296 13.8047 14.9297C13.8865 14.9298 13.9675 14.9133 14.0428 14.8811C14.118 14.8488 14.1859 14.8016 14.2422 14.7422C14.301 14.6847 14.3477 14.616 14.3797 14.5402C14.4116 14.4644 14.428 14.383 14.428 14.3008C14.428 14.2185 14.4116 14.1371 14.3797 14.0613C14.3477 13.9855 14.301 13.9169 14.2422 13.8594L12.4766 12.0938ZM8.5 13.375C8.33424 13.375 8.17527 13.4408 8.05806 13.5581C7.94085 13.6753 7.875 13.8342 7.875 14V16.5C7.875 16.6658 7.94085 16.8247 8.05806 16.9419C8.17527 17.0592 8.33424 17.125 8.5 17.125C8.66576 17.125 8.82473 17.0592 8.94194 16.9419C9.05915 16.8247 9.125 16.6658 9.125 16.5V14C9.125 13.8342 9.05915 13.6753 8.94194 13.5581C8.82473 13.4408 8.66576 13.375 8.5 13.375ZM4.52344 12.0938L2.75781 13.8594C2.69899 13.9169 2.65225 13.9855 2.62034 14.0613C2.58843 14.1371 2.572 14.2185 2.572 14.3008C2.572 14.383 2.58843 14.4644 2.62034 14.5402C2.65225 14.616 2.69899 14.6847 2.75781 14.7422C2.81415 14.8016 2.882 14.8488 2.95723 14.8811C3.03245 14.9133 3.11347 14.9298 3.19531 14.9297C3.27827 14.9296 3.36037 14.9129 3.43682 14.8807C3.51328 14.8485 3.58256 14.8014 3.64063 14.7422L5.40625 12.9766C5.51397 12.8577 5.57185 12.7019 5.5679 12.5415C5.56396 12.3811 5.49848 12.2284 5.38504 12.115C5.27159 12.0015 5.11887 11.936 4.95848 11.9321C4.79809 11.9281 4.64233 11.986 4.52344 12.0938ZM4.125 9C4.125 8.83424 4.05915 8.67527 3.94194 8.55806C3.82473 8.44085 3.66576 8.375 3.5 8.375H1C0.83424 8.375 0.675268 8.44085 0.558058 8.55806C0.440848 8.67527 0.375 8.83424 0.375 9C0.375 9.16576 0.440848 9.32473 0.558058 9.44194C0.675268 9.55915 0.83424 9.625 1 9.625H3.5C3.66576 9.625 3.82473 9.55915 3.94194 9.44194C4.05915 9.32473 4.125 9.16576 4.125 9ZM3.64063 3.25781C3.52173 3.15009 3.36597 3.09221 3.20558 3.09616C3.0452 3.10011 2.89247 3.16558 2.77903 3.27903C2.66558 3.39247 2.60011 3.5452 2.59616 3.70558C2.59221 3.86597 2.65009 4.02173 2.75781 4.14063L4.52344 5.90625C4.64159 6.02126 4.79996 6.08562 4.96484 6.08562C5.12973 6.08562 5.2881 6.02126 5.40625 5.90625C5.52313 5.78908 5.58877 5.63034 5.58877 5.46484C5.58877 5.29935 5.52313 5.1406 5.40625 5.02344L3.64063 3.25781Z" fill="#888888"/>
</svg>
